<?xml version="1.0" encoding="UTF-8"?>
<svg width="32px" height="32px" viewBox="0 0 32 32" version="1.1" xmlns="http://www.w3.org/2000/svg" xmlns:xlink="http://www.w3.org/1999/xlink">
    <!-- Generator: Sketch 55.2 (78181) - https://sketchapp.com -->
    <title>审批决策</title>
    <desc>Created with Sketch.</desc>
    <g id="Page-1" stroke="none" stroke-width="1" fill="none" fill-rule="evenodd">
        <g id="智能决策引擎" transform="translate(-817.000000, -922.000000)">
            <g id="审批决策" transform="translate(765.000000, 888.000000)">
                <g transform="translate(52.000000, 34.000000)">
                    <rect id="矩形" fill="#000000" fill-rule="nonzero" opacity="0" x="1" y="1" width="30" height="30"></rect>
                    <rect id="矩形" fill="#FFE462" x="8" y="25" width="19" height="3" rx="1"></rect>
                    <path d="M25.4838086,20.9095703 L18.9608594,20.9095703 C18.7981152,20.3508203 18.7128027,19.7378711 18.7128027,19.105293 C18.7128027,17.5557227 19.2414648,16.1122656 20.0601074,15.4273926 C20.0897776,15.4021912 20.1178587,15.3751766 20.1441895,15.3465039 L20.4053418,15.0557324 C21.9833301,13.7388379 22.8869043,11.8100195 22.8869043,9.75416992 C22.8869043,5.94733398 19.790166,2.850625 15.9828906,2.850625 C12.1756152,2.850625 9.07893555,5.94733398 9.07893555,9.75419922 C9.07893555,11.8168164 9.98728516,13.7492676 11.5733008,15.066543 L11.8272168,15.3480859 C11.8528153,15.3763038 11.8803846,15.4026689 11.9097168,15.4269824 C12.7283594,16.1126465 13.2570215,17.5564551 13.2570215,19.1052637 C13.2570215,19.7347949 13.1715332,20.3493262 13.0080859,20.909541 L6.48200195,20.909541 C5.12508789,20.909541 4.02126953,22.0133594 4.02126953,23.3703027 L4.02126953,26.6512598 C4.02126953,28.0082031 5.12508789,29.1120215 6.48200195,29.1120215 L25.4837793,29.1120215 C26.8406934,29.1120215 27.9444824,28.0082324 27.9444824,26.6512598 L27.9444824,23.3703027 C27.9444824,22.0133887 26.8407227,20.9095703 25.4838086,20.9095703 Z M13.0087305,14.2086719 L12.7500391,13.9218848 C12.7220469,13.8910984 12.6917863,13.8624537 12.6595117,13.8361914 C11.4267285,12.8309277 10.7194727,11.3430273 10.7194727,9.75419922 C10.7194727,6.85210937 13.0808594,4.49110352 15.9829492,4.49110352 C18.8850391,4.49110352 21.2464258,6.85210937 21.2464258,9.75419922 C21.2464258,11.3381934 20.543125,12.8228711 19.3159375,13.8277539 C19.2837511,13.8542747 19.2534985,13.8830588 19.2254102,13.9138867 L18.9602734,14.2094922 C17.7940234,15.2179492 17.0722949,17.0863281 17.0722949,19.105293 C17.0722949,19.7244824 17.1391797,20.3329199 17.268291,20.9095996 L14.7008301,20.9095996 C14.8301172,20.3316309 14.8975293,19.7222852 14.8975293,19.1053223 C14.8975293,17.086709 14.1750098,15.2179492 13.0087598,14.2086426 L13.0087305,14.2086719 Z M26.3040332,26.6512891 C26.3040332,27.103457 25.9363574,27.471543 25.4838086,27.471543 L6.48203125,27.471543 C6.02945313,27.471543 5.66177734,27.1034863 5.66177734,26.6512891 L5.66177734,23.370332 C5.66177734,22.9181641 6.02945313,22.5501074 6.48203125,22.5501074 L25.4838086,22.5501074 C25.9363867,22.5501074 26.3040332,22.9181641 26.3040332,23.370332 L26.3040332,26.6512891 Z" id="形状" fill="#FE9B01" fill-rule="nonzero"></path>
                </g>
            </g>
        </g>
    </g>
</svg>