<?xml version="1.0" encoding="UTF-8"?>
<svg width="22px" height="22px" viewBox="0 0 22 22" version="1.1" xmlns="http://www.w3.org/2000/svg" xmlns:xlink="http://www.w3.org/1999/xlink">
    <!-- Generator: Sketch 55.2 (78181) - https://sketchapp.com -->
    <title>多种支付</title>
    <desc>Created with Sketch.</desc>
    <g id="Page-1" stroke="none" stroke-width="1" fill="none" fill-rule="evenodd">
        <g id="智能决策引擎" transform="translate(-562.000000, -1720.000000)" fill-rule="nonzero">
            <g id="优势" transform="translate(1.000000, 1568.000000)">
                <g id="支持多种" transform="translate(538.000000, 120.000000)">
                    <g id="多种支付" transform="translate(23.000000, 32.000000)">
                        <rect id="矩形" fill="#000000" opacity="0" x="0" y="0" width="22" height="22"></rect>
                        <path d="M13.9061728,5.69594356 L3.90335097,5.69594356 C2.46772487,5.69594356 1.29594356,6.86772485 1.29594356,8.30335097 L1.29594356,16.7308642 C1.29594356,18.1664903 2.46772485,19.3382716 3.90335097,19.3382716 L13.8984127,19.3382716 C15.3340388,19.3382716 16.5058584,18.1664903 16.5058584,16.7308642 L16.5058584,8.30335097 C16.5135803,6.85996472 15.3417989,5.69594356 13.9061728,5.69594356 Z M3.90335097,7.09276896 L13.8984127,7.09276896 C14.5657848,7.09276896 15.1089947,7.63597884 15.1089947,8.30335097 L15.1089947,11.0116402 L2.69276896,11.0116402 L2.69276896,8.30335097 C2.70052909,7.63597884 3.24373897,7.09276896 3.90335097,7.09276896 Z M13.9061728,17.9336861 L3.90335097,17.9336861 C3.23597884,17.9336861 2.69276896,17.3904762 2.69276896,16.7231041 L2.69276896,12.4783069 L15.1090757,12.4783069 L15.1090757,16.7231041 C15.1167549,17.3982363 14.5657848,17.9336861 13.9061728,17.9336861 Z M8.24126985,14.4804233 L5.10617284,14.4804233 C4.70264551,14.4804233 4.36895944,14.8063492 4.36895944,15.2176367 C4.36895944,15.621164 4.69488536,15.9548501 5.10617284,15.9548501 L8.24902998,15.9548501 C8.65255731,15.9548501 8.98624338,15.6289242 8.98624338,15.2176367 C8.97848325,14.8063492 8.65255731,14.4804233 8.24126985,14.4804233 Z M12.7499118,14.4804233 L11.5470899,14.4804233 C11.1435626,14.4804233 10.8098765,14.8063492 10.8098765,15.2176367 C10.8098765,15.621164 11.1358025,15.9548501 11.5470899,15.9548501 L12.7499118,15.9548501 C13.1534391,15.9548501 13.4871252,15.6289242 13.4871252,15.2176367 C13.4793651,14.8063492 13.1534391,14.4804233 12.7499118,14.4804233 Z M18.1432099,1.16402116 L8.14814814,1.16402116 C6.71252205,1.16402116 5.54074073,2.33580246 5.54074073,3.77142857 L5.54074073,4.31463845 L6.93756613,4.31463845 L6.93756613,3.77142857 C6.93756613,3.10405644 7.48077602,2.56084656 8.14814814,2.56084656 L18.1432099,2.56084656 C18.810582,2.56084656 19.3537919,3.10405644 19.3537919,3.77142857 L19.3537919,12.1989418 C19.3537919,12.8663139 18.810582,13.4095238 18.1432099,13.4095238 L17.7164021,13.4095238 L17.7164021,14.8063492 L18.1432099,14.8063492 C19.578836,14.8063492 20.7506556,13.6345679 20.7506556,12.1989418 L20.7506556,3.77142857 C20.7583774,2.33580248 19.5865961,1.16402116 18.1432099,1.16402116 Z" id="形状" fill="#FFB302"></path>
                    </g>
                </g>
            </g>
        </g>
    </g>
</svg>