<?xml version="1.0" encoding="UTF-8"?>
<svg width="52px" height="52px" viewBox="0 0 52 52" version="1.1" xmlns="http://www.w3.org/2000/svg" xmlns:xlink="http://www.w3.org/1999/xlink">
    <!-- Generator: Sketch 55.2 (78181) - https://sketchapp.com -->
    <title>联合运营方案图标（亮）</title>
    <desc>Created with Sketch.</desc>
    <defs>
        <polygon id="path-1" points="0 0.307674256 29.7451496 0.307674256 29.7451496 30.8333333 0 30.8333333"></polygon>
    </defs>
    <g id="Page-1" stroke="none" stroke-width="1" fill="none" fill-rule="evenodd">
        <g id="首页规范" transform="translate(-855.000000, -771.000000)">
            <g id="联合运营方案图标" transform="translate(855.000000, 771.000000)">
                <circle id="椭圆形" fill="#FCD000" opacity="0.100538" cx="26" cy="26" r="26"></circle>
                <g id="联合运营" transform="translate(11.000000, 12.000000)">
                    <g id="编组">
                        <mask id="mask-2" fill="white">
                            <use xlink:href="#path-1"></use>
                        </mask>
                        <g id="Clip-8"></g>
                        <path d="M25.4449333,28.6209731 C24.2866,28.6082972 23.3552667,27.6373898 23.3595849,26.4468806 C23.3636,25.2563713 24.3016,24.2923157 25.4599333,24.2881914 C26.6182667,24.2840935 27.5629333,25.2409546 27.5752667,26.4314639 C27.5922667,27.0176398 27.3732667,27.5846306 26.9699333,27.9991676 C26.5669333,28.413362 26.0149333,28.6384454 25.4449333,28.6209731 M6.36826667,19.9095287 C6.36893333,19.1215657 6.77793333,18.3942417 7.4416,18.0002602 C8.08893333,17.5946306 8.90226667,17.5946306 9.5496,18.0002602 C10.2096,18.3983528 10.6189333,19.1225935 10.6286,19.9095287 C10.6329333,20.4854269 10.4122667,21.0390565 10.0159333,21.4463991 C9.61993333,21.8537417 9.08093333,22.080538 8.5206,22.0757417 C7.9556,22.0819083 7.4116,21.8571676 7.00793333,21.4508528 C6.60426667,21.044538 6.37426667,20.4898806 6.36826667,19.9095287 M25.4449333,22.0757417 C23.5969333,22.0853343 21.9699333,23.329288 21.4292667,25.1453713 L10.6286,25.1453713 C10.0516,25.1460565 9.57626667,24.6801306 9.5496,24.087788 C11.6422667,23.560538 13.0156,21.5015565 12.7392667,19.3051954 C12.4629333,17.1088343 10.6249333,15.4763806 8.4706,15.5137231 C6.96326667,15.5294824 5.5726,16.3499917 4.79993333,17.6802787 L3.19793333,17.6802787 C2.6026,17.6806213 2.11226667,17.1996213 2.0856,16.5884361 L2.0856,6.82488981 C2.1036,6.20685278 2.59626667,5.715575 3.19793333,5.71591759 L10.0889333,5.71591759 C10.4919333,5.74572315 10.8772667,5.54153796 11.0876,5.18729722 C11.2979333,4.83271389 11.2979333,4.38700093 11.0876,4.03241759 C10.8772667,3.67817685 10.4919333,3.47399167 10.0889333,3.50379722 L3.19793333,3.50379722 C2.35093333,3.49763056 1.5366,3.83953796 0.936266667,4.45346389 C0.3356,5.06773241 -0.0014,5.90297315 -7.06081251e-05,6.77350093 L-7.06081251e-05,16.5884361 C-0.0014,17.4589639 0.3356,18.293862 0.936266667,18.9081306 C1.5366,19.5220565 2.35093333,19.8639639 3.19793333,19.8577972 L4.26026667,19.8577972 C4.2746,21.8427787 5.57626667,23.5735565 7.4416,24.087788 C7.45993333,25.8809176 8.88426667,27.3215194 10.6286,27.3119269 L21.3069333,27.3119269 C21.7476,29.578862 23.8272667,31.1033991 26.0562667,30.7933528 C28.2852667,30.4833065 29.8959333,28.4455657 29.7339333,26.139575 C29.5726,23.8335843 27.6942667,22.0541583 25.4449333,22.0757417 M16.9966,6.82489797 C16.1436,6.82728796 15.3732667,6.30072315 15.0452667,5.49151944 C14.7172667,4.68197315 14.8962667,3.74943611 15.4986,3.12865833 C16.1012667,2.50788056 17.0082667,2.32151019 17.7966,2.65622315 C18.5849333,2.9912787 19.0992667,3.78163981 19.0992667,4.65833426 C19.0929333,5.85021389 18.1562667,6.81563981 16.9966,6.82489797 M26.5572667,3.56649167 L21.1069333,3.56649167 C20.5439333,1.37150093 18.4399333,-0.0159990741 16.2639333,0.372843519 C14.0876,0.762028704 12.5629333,2.79771389 12.7539333,5.05951019 C12.9446,7.32096389 14.7879333,9.05619537 16.9966,9.05413981 C18.9306,9.03495463 20.6132667,7.68925093 21.1069333,5.76730648 L26.5572667,5.76730648 C27.1436,5.78820463 27.6136,6.27365833 27.6306,6.8762787 L27.6306,16.7141676 C27.5996,17.3054824 27.1336,17.7744917 26.5572667,17.794362 L16.4572667,17.794362 C16.0716,17.794362 15.7156,18.0057417 15.5226,18.3490194 C15.3302667,18.6919546 15.3302667,19.1147139 15.5226,19.4576491 C15.7156,19.8009269 16.0716,20.0123065 16.4572667,20.0123065 L26.5572667,20.0123065 C27.4042667,20.0109361 28.2159333,19.6614917 28.8112667,19.0420843 C29.4066,18.4226769 29.7362667,17.5846954 29.7277667,16.7141676 L29.7277667,6.82488981 C29.7246,5.0266213 28.3069333,3.56991759 26.5572667,3.56649167" id="Fill-7" fill="#FCD000" mask="url(#mask-2)"></path>
                    </g>
                </g>
            </g>
        </g>
    </g>
</svg>