<?xml version="1.0" encoding="UTF-8"?>
<svg width="52px" height="52px" viewBox="0 0 52 52" version="1.1" xmlns="http://www.w3.org/2000/svg" xmlns:xlink="http://www.w3.org/1999/xlink">
    <!-- Generator: Sketch 55.2 (78181) - https://sketchapp.com -->
    <title>信贷风控方案图标（亮）</title>
    <desc>Created with Sketch.</desc>
    <defs>
        <polygon id="path-1" points="3.40909091e-05 0.0356190476 29.9427614 0.0356190476 29.9427614 21.8102063 3.40909091e-05 21.8102063"></polygon>
        <polygon id="path-3" points="0 30 30 30 30 1 0 1"></polygon>
    </defs>
    <g id="Page-1" stroke="none" stroke-width="1" fill="none" fill-rule="evenodd">
        <g id="首页规范" transform="translate(-769.000000, -771.000000)">
            <g id="信贷风控方案图标亮" transform="translate(769.000000, 771.000000)">
                <circle id="椭圆形" fill="#FCD000" opacity="0.100000001" cx="26" cy="26" r="26"></circle>
                <g id="信贷风控方案" transform="translate(11.000000, 10.000000)">
                    <g id="编组">
                        <mask id="mask-2" fill="white">
                            <use xlink:href="#path-1"></use>
                        </mask>
                        <g id="Clip-4"></g>
                        <path d="M8.87764773,6.15074603 C5.03628409,6.15074603 1.91117045,9.17522222 1.91117045,12.892873 C1.91117045,14.4321746 2.43344318,15.8817302 3.42105682,17.0840476 C4.38923864,18.262619 5.74980682,19.1028095 7.25219318,19.4502698 L7.39605682,19.4837937 L7.52355682,19.5599206 C7.55935227,19.5812222 7.64253409,19.6206825 7.80378409,19.646873 C9.90480682,19.9873492 13.8300341,19.8235714 16.4274205,19.7149683 C17.4579886,19.6720159 18.3481023,19.6346508 18.9324205,19.6346508 C21.3692386,19.6346508 23.6584432,18.7130952 25.3786705,17.039 C26.3451477,16.0989365 27.0907159,14.9427143 27.5352614,13.6956984 C27.8645795,12.7713492 28.031625,11.8019524 28.031625,10.8140476 C28.031625,8.46738095 27.0913977,6.25830159 25.3834432,4.59398413 C23.662875,2.91709524 21.3719659,1.99344444 18.9324205,1.99344444 C15.8887841,1.99344444 13.0592386,3.46011111 11.3638977,5.91642857 L11.0018523,6.44093651 L10.3882159,6.30963492 C9.89560227,6.2041746 9.38730682,6.15074603 8.87764773,6.15074603 M11.4634432,21.8102063 C9.97673864,21.8102063 8.56878409,21.7529365 7.50514773,21.5804286 C7.20855682,21.5325873 6.93992045,21.4480794 6.70401136,21.3296984 C4.84707955,20.8711905 3.16639773,19.8144921 1.95889773,18.3446825 C1.33810227,17.5893492 0.854693182,16.7453175 0.521284091,15.8363333 C0.175261364,14.8934762 3.40909091e-05,13.903127 3.40909091e-05,12.892873 C3.40909091e-05,10.5598254 0.929352273,8.36890476 2.61719318,6.72414286 C4.29207955,5.09195238 6.51548864,4.19309524 8.87764773,4.19309524 C9.31094318,4.19309524 9.74389773,4.2238254 10.1710568,4.28493651 C12.2499205,1.61315873 15.4800341,0.0354444444 18.9324205,0.0354444444 C21.8645795,0.0354444444 24.6235568,1.15080952 26.7010568,3.17550794 C27.7156023,4.16446032 28.5126477,5.31719048 29.070375,6.60192063 C29.6492386,7.93588889 29.9427614,9.35331746 29.9427614,10.8140476 C29.9427614,12.0317302 29.7368523,13.2270635 29.3304886,14.3672222 C28.785375,15.8963968 27.874125,17.3110317 26.6949205,18.4585238 C24.6181023,20.479381 21.8611705,21.5923016 18.9324205,21.5923016 C18.3869659,21.5923016 17.5149205,21.6289683 16.5051477,21.6712222 C14.9894659,21.7344286 13.1744659,21.8102063 11.4634432,21.8102063" id="Fill-3" fill="#FBCF00" mask="url(#mask-2)"></path>
                    </g>
                    <path d="M22.0400479,26.4857816 C21.5098996,26.4857816 21.0800959,26.0636619 21.0800959,25.5429917 L21.0800959,21.6874083 C21.0800959,21.166738 21.5098996,20.7446184 22.0400479,20.7446184 C22.5701963,20.7446184 23,21.166738 23,21.6874083 L23,25.5429917 C23,26.0636619 22.5701963,26.4857816 22.0400479,26.4857816 M15.0001712,29 L14.9957191,29 C14.4655708,28.9976455 14.0374794,28.5735078 14.0398667,28.0528376 L14.0816584,18.9387537 C14.0840557,18.4194288 14.513517,18 15.0416105,18 L15.0460626,18 C15.576211,18.0023545 16.0043023,18.4264922 16.001915,18.9471624 L15.9601233,28.0612463 C15.957726,28.5805712 15.5282647,29 15.0001712,29 M7.95995205,26.4857816 C7.42980372,26.4857816 7,26.0636619 7,25.5429917 L7,21.6874083 C7,21.166738 7.42980372,20.7446184 7.95995205,20.7446184 C8.49010039,20.7446184 8.91990411,21.166738 8.91990411,21.6874083 L8.91990411,25.5429917 C8.91990411,26.0636619 8.49010039,26.4857816 7.95995205,26.4857816" id="Fill-5" fill="#FBCF00"></path>
                    <mask id="mask-4" fill="white">
                        <use xlink:href="#path-3"></use>
                    </mask>
                    <g id="Clip-8"></g>
                    <path d="M13.0131899,16.348996 L17.364775,16.348996 L17.364775,11.9043251 L13.0131899,11.9043251 L13.0131899,16.348996 Z M11.1484149,18.2540006 L19.2295499,18.2540006 L19.2295499,10 L11.1484149,10 L11.1484149,18.2540006 Z M26.0676125,30 L4.93205484,30 C4.41712947,30 4,29.5736079 4,29.0476676 C4,28.5217273 4.41712947,28.0953352 4.93205484,28.0953352 L26.0676125,28.0953352 C26.5825379,28.0953352 27,28.5217273 27,29.0476676 C27,29.5736079 26.5825379,30 26.0676125,30 L26.0676125,30 Z" id="Fill-7" fill="#FBCF00" mask="url(#mask-4)"></path>
                </g>
            </g>
        </g>
    </g>
</svg>