<?xml version="1.0" encoding="UTF-8"?>
<svg width="32px" height="32px" viewBox="0 0 32 32" version="1.1" xmlns="http://www.w3.org/2000/svg" xmlns:xlink="http://www.w3.org/1999/xlink">
    <!-- Generator: Sketch 55.2 (78181) - https://sketchapp.com -->
    <title>定制化</title>
    <desc>Created with Sketch.</desc>
    <g id="Page-1" stroke="none" stroke-width="1" fill="none" fill-rule="evenodd">
        <g id="智能决策引擎" transform="translate(-1230.000000, -546.000000)">
            <g id="定制化" transform="translate(1175.000000, 512.000000)">
                <g id="编组-8">
                    <g id="定制化" transform="translate(55.000000, 34.000000)">
                        <polygon id="路径-3" fill="#FFE462" points="20.263373 5.45439635 26.8098796 11.4302462 30.3489709 8.04369231 24.0484138 1.93727595"></polygon>
                        <path d="M23.9534913,0.307476923 L3.99232621,20.0767077 L9.3203882e-05,31.9385538 L11.9767922,27.9847077 L31.9379573,8.21516923 L23.9534913,0.307476923 Z M20.7072,5.38655385 L23.9534913,2.17147692 L30.0561709,8.21516923 L26.8098796,11.4302462 L20.7072,5.38655385 Z M6.06890874,19.8840923 L19.7664621,6.31824615 L22.346967,8.87424615 L8.64972427,22.4400923 L6.06890874,19.8840923 Z M9.59077282,23.3717846 L23.2880155,9.80624615 L25.8688311,12.3622462 L12.1715883,25.9277846 L9.59077282,23.3717846 Z M3.61578252,25.3622462 L5.14184078,20.8290154 L11.2171806,26.8462462 L6.63993786,28.3570154 L3.61578252,25.3622462 Z M3.14572427,26.7600923 L5.22883107,28.8231692 L2.10401553,29.8545538 L3.14572427,26.7600923 Z" id="Fill-1" fill="#FE9B01"></path>
                        <polygon id="Fill-2" fill="#FE9B01" points="10.6460583 31.9384615 26.615301 31.9384615 26.615301 30.6206154 10.6460583 30.6206154"></polygon>
                        <polygon id="Fill-3" fill="#FFE462" points="29.2765825 31.9384615 31.9381748 31.9384615 31.9381748 30.6206154 29.2765825 30.6206154"></polygon>
                    </g>
                </g>
            </g>
        </g>
    </g>
</svg>