<?xml version="1.0" encoding="UTF-8"?>
<svg width="32px" height="32px" viewBox="0 0 32 32" version="1.1" xmlns="http://www.w3.org/2000/svg" xmlns:xlink="http://www.w3.org/1999/xlink">
    <!-- Generator: Sketch 55.2 (78181) - https://sketchapp.com -->
    <title>客户分群</title>
    <desc>Created with Sketch.</desc>
    <defs>
        <polygon id="path-1" points="1.75148784e-12 0.0514988372 31.9378641 0.0514988372 31.9378641 13.3 1.75148784e-12 13.3"></polygon>
        <polygon id="path-3" points="0 31 32 31 32 0 0 0"></polygon>
    </defs>
    <g id="Page-1" stroke="none" stroke-width="1" fill="none" fill-rule="evenodd">
        <g id="Smart-Score-评分" transform="translate(-411.000000, -732.000000)">
            <g id="客户分群" transform="translate(411.000000, 732.000000)">
                <g id="编组" transform="translate(0.000000, 18.000000)">
                    <mask id="mask-2" fill="white">
                        <use xlink:href="#path-1"></use>
                    </mask>
                    <g id="Clip-2"></g>
                    <path d="M21.2919922,0.0514988372 L15.9691184,6.67582674 L10.645934,0.0514988372 C4.76632233,0.0514988372 -0.000124271845,4.79681512 -0.000124271845,10.6503616 L-0.000124271845,11.9751035 C-0.000124271845,12.7069128 0.595759223,13.3001547 1.33082718,13.3001547 L19.9613515,13.3001547 L19.9613515,11.9751035 L1.33082718,11.9751035 L1.33082718,10.6503616 C1.33082718,5.76957093 5.13789515,1.75699186 9.95094369,1.40191279 L15.9691184,9.0642593 L21.9869825,1.40191279 C26.8000311,1.75699186 30.607099,5.76957093 30.607099,10.6503616 L30.607099,11.9751035 L27.9458175,11.9751035 L27.9458175,13.3001547 L30.607099,13.3001547 C31.342167,13.3001547 31.9380505,12.7069128 31.9380505,11.9751035 L31.9380505,10.6503616 C31.9380505,4.79681512 27.1716039,0.0514988372 21.2919922,0.0514988372" id="Fill-1" fill="#FE9B01" mask="url(#mask-2)"></path>
                </g>
                <mask id="mask-4" fill="white">
                    <use xlink:href="#path-3"></use>
                </mask>
                <g id="Clip-4"></g>
                <path d="M18,1 L24,1 C24,4.3137085 21.3137085,7 18,7 L12,7 C12,3.6862915 14.6862915,1 18,1 Z" id="矩形" fill="#FFE462" mask="url(#mask-4)"></path>
                <polygon id="Fill-3" fill="#FFE462" mask="url(#mask-4)" points="23 31 26 31 26 30 23 30"></polygon>
                <path d="M18.6667704,7.71424283 C20.1696498,7.71424283 21.5218677,7.11001051 22.4912062,6.14588023 C22.5961089,6.64115263 22.6667704,7.15803692 22.6667704,7.71424283 C22.6667704,12.256341 19.3646693,16.7140928 16,16.7140928 C12.635642,16.7140928 9.33354086,12.256341 9.33354086,7.71424283 L18.6667704,7.71424283 Z M9.33354086,5.1427285 C9.33354086,3.01605883 11.1277821,1.28560708 13.3335409,1.28560708 L22.6667704,1.28560708 L22.6667704,2.57151433 C22.6667704,4.698184 20.8725292,6.42863575 18.6667704,6.42863575 L9.33354086,6.42863575 L9.33354086,5.1427285 Z M24,7.71424283 C24,6.6096353 23.8066926,5.62809545 23.4810895,4.75101306 C23.8051362,4.08704788 24,3.35374456 24,2.57151433 L24,0 L13.3335409,0 C10.3878599,0 8,2.30256641 8,5.1427285 L8,7.71424283 C8,12.6846766 11.5816342,18 16,18 C20.4183658,18 24,12.6846766 24,7.71424283 Z" id="Fill-5" fill="#FE9B01" mask="url(#mask-4)"></path>
            </g>
        </g>
    </g>
</svg>