<?xml version="1.0" encoding="UTF-8"?>
<svg width="32px" height="32px" viewBox="0 0 32 32" version="1.1" xmlns="http://www.w3.org/2000/svg" xmlns:xlink="http://www.w3.org/1999/xlink">
    <!-- Generator: Sketch 55.2 (78181) - https://sketchapp.com -->
    <title>数据管理</title>
    <desc>Created with Sketch.</desc>
    <defs>
        <polygon id="path-1" points="0 30.9398058 31.9378641 30.9398058 31.9378641 -1.42108547e-14 0 -1.42108547e-14"></polygon>
    </defs>
    <g id="Page-1" stroke="none" stroke-width="1" fill="none" fill-rule="evenodd">
        <g id="智能决策引擎" transform="translate(-407.000000, -546.000000)">
            <g id="数据管理" transform="translate(356.000000, 512.000000)">
                <g transform="translate(51.000000, 34.000000)">
                    <path d="M21.0256932,24.4938825 L16.0412272,24.4938825 C15.3074019,24.4938825 14.7102757,23.9157175 14.7102757,23.2048243 C14.7102757,22.4939311 15.3074019,21.915766 16.0412272,21.915766 L21.0256932,21.915766 C21.7592078,21.915766 22.356334,22.4939311 22.356334,23.2048243 C21.9582498,24.0641964 21.5147029,24.4938825 21.0256932,24.4938825 Z" id="路径" fill="#FFE462"></path>
                    <path d="M16.0333359,16.7589913 C15.2995107,16.7589913 14.7026951,16.1805252 14.7026951,15.469933 C14.7026951,14.7590398 15.2995107,14.1805738 16.0333359,14.1805738 C16.7671612,14.1805738 17.3639767,14.7590398 17.3639767,15.469933 C17.3639767,16.1805252 16.7671612,16.7589913 16.0333359,16.7589913 L16.0333359,16.7589913 Z M23.547433,7.27901068 L17.3773359,13.2562922 C16.9818408,13.0302631 16.5260738,12.8915155 16.0333359,12.8915155 C14.5635107,12.8915155 13.3717437,14.0457388 13.3717437,15.469933 C13.3717437,16.8938262 14.5635107,18.0480495 16.0333359,18.0480495 C17.5031612,18.0480495 18.6949282,16.8938262 18.6949282,15.469933 C18.6949282,14.9925932 18.5517049,14.5510689 18.3183845,14.167632 L24.4881709,8.19065146 L23.547433,7.27901068 Z" id="Fill-1" fill="#FE9B01"></path>
                    <path d="M20.0256932,24.4938825 L12.0412272,24.4938825 C11.3074019,24.4938825 10.7102757,23.9157175 10.7102757,23.2048243 C10.7102757,22.4939311 11.3074019,21.915766 12.0412272,21.915766 L20.0256932,21.915766 C20.7592078,21.915766 21.356334,22.4939311 21.356334,23.2048243 C21.356334,23.9157175 20.7592078,24.4938825 20.0256932,24.4938825 Z M12.0412272,20.6264068 C10.5710913,20.6264068 9.37963495,21.7809311 9.37963495,23.2048243 C9.37963495,24.6287175 10.5710913,25.7832417 12.0412272,25.7832417 L20.0256932,25.7832417 C21.4955184,25.7832417 22.6869748,24.6287175 22.6869748,23.2048243 C22.6869748,21.7809311 21.4955184,20.6264068 20.0256932,20.6264068 L12.0412272,20.6264068 Z" id="Fill-3" fill="#FE9B01"></path>
                    <mask id="mask-2" fill="white">
                        <use xlink:href="#path-1"></use>
                    </mask>
                    <g id="Clip-6"></g>
                    <polygon id="Fill-5" fill="#FE9B01" mask="url(#mask-2)" points="14.7026019 6.4458932 16.0332427 6.4458932 16.0332427 3.86747573 14.7026019 3.86747573"></polygon>
                    <polygon id="Fill-7" fill="#FE9B01" mask="url(#mask-2)" points="4.05654369 16.7589612 6.71813592 16.7589612 6.71813592 15.4699029 4.05654369 15.4699029"></polygon>
                    <polygon id="Fill-8" fill="#FE9B01" mask="url(#mask-2)" points="25.3483495 16.7589612 28.0099417 16.7589612 28.0099417 15.4699029 25.3483495 15.4699029"></polygon>
                    <path d="M27.2416932,6.43490777 L28.1874019,5.51875243 C27.6151301,4.85992718 26.9853825,4.25076214 26.3084117,3.69246117 L25.3627029,4.6086165 C26.0437126,5.16240291 26.6743922,5.77186893 27.2416932,6.43490777" id="Fill-9" fill="#FFE462" mask="url(#mask-2)"></path>
                    <path d="M29.7386563,7.66223689 L28.7671612,8.60337282 C29.9359379,10.6397417 30.6073165,12.9791883 30.6073165,15.4697223 C30.6073165,23.2892466 24.0404816,29.650567 15.9690252,29.650567 C7.89756893,29.650567 1.33073398,23.2892466 1.33073398,15.4697223 C1.33073398,7.65049903 7.89756893,1.28917864 15.9690252,1.28917864 C18.5734524,1.28917864 21.0160155,1.95883883 23.1370252,3.11878058 L24.1085204,2.17764466 C21.7228117,0.80341165 18.9459573,-0.000180582524 15.9690252,-0.000180582524 C7.14976311,-0.000180582524 9.32038835e-05,6.92606214 9.32038835e-05,15.4697223 C9.32038835e-05,24.0136835 7.14976311,30.9399262 15.9690252,30.9399262 C24.7885981,30.9399262 31.9379573,24.0136835 31.9379573,15.4697223 C31.9379573,12.6183243 31.1277049,9.95593592 29.7386563,7.66223689" id="Fill-10" fill="#FE9B01" mask="url(#mask-2)"></path>
                </g>
            </g>
        </g>
    </g>
</svg>