<?xml version="1.0" encoding="UTF-8"?>
<svg width="32px" height="32px" viewBox="0 0 32 32" version="1.1" xmlns="http://www.w3.org/2000/svg" xmlns:xlink="http://www.w3.org/1999/xlink">
    <!-- Generator: Sketch 55.2 (78181) - https://sketchapp.com -->
    <title>数据衍生</title>
    <desc>Created with Sketch.</desc>
    <defs>
        <polygon id="path-1" points="-1.63602465e-12 0.0615384615 23.7230769 0.0615384615 23.7230769 27.7383385 -1.63602465e-12 27.7383385"></polygon>
        <polygon id="path-3" points="4 31.9384615 27.7230769 31.9384615 27.7230769 0.307692308 4 0.307692308"></polygon>
    </defs>
    <g id="Page-1" stroke="none" stroke-width="1" fill="none" fill-rule="evenodd">
        <g id="智能决策引擎" transform="translate(-814.000000, -546.000000)">
            <g id="数据衍生" transform="translate(765.000000, 511.000000)">
                <g transform="translate(49.000000, 35.000000)">
                    <path d="M22.9393088,12.3305866 C22.9393088,17.873154 16.7741538,20.2986204 16.7741538,26.7383847 C16.7741538,27.7838529 21.4320274,27.0717385 20.6482462,26.7383847 L24.1147668,18.9883231 C25.0451522,17.1651528 26.5419031,16.0138286 27.1793231,13.923 C27.6647939,12.3305866 27.6647939,13.923 27.1793231,8.5717385 C26.4901051,0.974606201 16.6169582,1.00000056 14,1.00000056 C22.2990427,5.0717385 22.9393088,7.95012997 22.9393088,12.3305866 Z" id="Fill-1" fill="#FFE462"></path>
                    <g id="编组" transform="translate(4.000000, 0.246154)">
                        <mask id="mask-2" fill="white">
                            <use xlink:href="#path-1"></use>
                        </mask>
                        <g id="Clip-2"></g>
                        <path d="M7.84916923,26.4204923 C7.50732308,22.6229538 5.72978462,19.9266462 4.14270769,17.5192615 C2.62701538,15.2201846 1.31809231,13.2346462 1.31809231,10.6051077 C1.31809231,7.83126154 2.34547692,1.37926154 11.8614769,1.37926154 C21.3777846,1.37926154 22.4051692,7.83126154 22.4051692,10.6051077 C22.4051692,13.7580308 21.0340923,15.7414154 19.4464,18.0383385 C17.9190154,20.2481846 16.2088615,22.7223385 15.8740923,26.4204923 L7.84916923,26.4204923 Z M-6.15384604e-05,10.6051077 C-6.15384604e-05,16.9811077 6.58978462,19.9131077 6.58978462,27.7383385 L17.1334769,27.7383385 C17.1334769,19.8306462 23.7233231,17.8838769 23.7233231,10.6051077 C23.7233231,3.32603077 18.4125538,0.0614153846 11.8614769,0.0614153846 C5.31070769,0.0614153846 -6.15384604e-05,3.32603077 -6.15384604e-05,10.6051077 Z" id="Fill-1" fill="#FE9B01" mask="url(#mask-2)"></path>
                    </g>
                    <polygon id="Fill-3" fill="#FE9B01" points="18.4132 6.73966154 14.4593538 15.9652 12.2901231 12.1692 7.95381538 12.1692 7.95381538 13.4870462 11.5255077 13.4870462 14.6279692 18.9165846 18.5818154 9.69104615 20.7510462 13.4870462 23.7692 13.4870462 23.7692 12.1692 21.5156615 12.1692"></polygon>
                    <mask id="mask-4" fill="white">
                        <use xlink:href="#path-3"></use>
                    </mask>
                    <g id="Clip-6"></g>
                    <polygon id="Fill-5" fill="#FE9B01" mask="url(#mask-4)" points="15.8615385 31.9384615 21.1332308 31.9384615 21.1332308 30.6206154 15.8615385 30.6206154"></polygon>
                    <polygon id="Fill-7" fill="#FFE462" mask="url(#mask-4)" points="10.5898462 31.9384615 13.2258462 31.9384615 13.2258462 30.6206154 10.5898462 30.6206154"></polygon>
                </g>
            </g>
        </g>
    </g>
</svg>