<?xml version="1.0" encoding="UTF-8"?>
<svg width="22px" height="22px" viewBox="0 0 22 22" version="1.1" xmlns="http://www.w3.org/2000/svg" xmlns:xlink="http://www.w3.org/1999/xlink">
    <!-- Generator: Sketch 55.2 (78181) - https://sketchapp.com -->
    <title>数据维度</title>
    <desc>Created with Sketch.</desc>
    <g id="Page-1" stroke="none" stroke-width="1" fill="none" fill-rule="evenodd">
        <g id="Smart-Score-评分" transform="translate(-583.000000, -1050.000000)" fill-rule="nonzero">
            <g id="数据维度" transform="translate(583.000000, 1050.000000)">
                <rect id="矩形" fill="#000000" opacity="0" x="0" y="0" width="22" height="22"></rect>
                <path d="M17.4546322,16.8859371 L3.99713682,16.8859371 C3.49665261,16.8853229 3.09113623,16.4709676 3.09073556,15.9597795 L3.09073556,5.55703145 C3.09073556,5.24939148 2.84656609,5 2.54536778,5 C2.24416947,5 2,5.24939148 2,5.55703145 L2,15.9597795 C2.00040117,17.0862474 2.89425607,17.9993852 3.99713682,18 L17.4546322,18 C17.7558305,18 18,17.7506085 18,17.4429685 C18,17.1353286 17.7558305,16.8859371 17.4546322,16.8859371 L17.4546322,16.8859371 Z" id="路径" fill="#FFB302"></path>
                <path d="M9.72285109,7.55693546 C9.54866551,7.52423279 9.37048711,7.58441014 9.24574811,7.71807057 L6.15893185,11.0085578 C5.94563449,11.2355414 5.9478147,11.6011941 6.16074869,11.8281777 C6.37513615,12.0567107 6.71779275,12.055936 6.92963665,11.8301144 L9.72285109,8.85260112 L12.5160655,11.8301144 C12.6302708,11.9521537 12.7895947,12.0135225 12.9506028,11.9974906 C13.1116108,11.9814587 13.2575163,11.8896975 13.348543,11.7472228 C13.3932373,11.7208834 13.4350247,11.6875718 13.4728151,11.647288 L17.8390521,6.99296261 C17.9418692,6.88428174 17.9997948,6.73638841 18,6.58203857 C18.0002041,6.42768874 17.9426708,6.27962149 17.8401423,6.1706313 C17.7378844,6.06126336 17.5989491,5.99985486 17.4540937,6 C17.3092383,6.00014566 17.1704118,6.06183297 17.0683473,6.171406 L12.908867,10.6053327 L10.1999541,7.71807057 C10.0751448,7.58455046 9.89697587,7.52452095 9.72285109,7.55732281 L9.72285109,7.55693546 Z" id="路径" fill="#FFB302"></path>
            </g>
        </g>
    </g>
</svg>