<?xml version="1.0" encoding="UTF-8"?>
<svg width="42px" height="42px" viewBox="0 0 42 42" version="1.1" xmlns="http://www.w3.org/2000/svg" xmlns:xlink="http://www.w3.org/1999/xlink">
    <!-- Generator: Sketch 55.2 (78181) - https://sketchapp.com -->
    <title>仿真系统</title>
    <desc>Created with Sketch.</desc>
    <g id="Page-1" stroke="none" stroke-width="1" fill="none" fill-rule="evenodd">
        <g id="首页" transform="translate(-1350.000000, -942.000000)" fill="#FE9B01" fill-rule="nonzero">
            <g id="6" transform="translate(1350.000000, 940.000000)">
                <g id="仿真系统" transform="translate(0.000000, 2.000000)">
                    <path d="M41.4257812,19.9162775 C41.1878086,19.5991304 40.7850352,19.0812439 40.2182813,18.4158585 C39.2826328,17.3174107 37.7575078,15.6537423 35.8056562,13.9660375 C32.7006094,11.2812802 28.0163789,8.12933393 22.679918,7.56115997 L26.6313633,3.60953715 L31.2183867,3.60953715 C31.6714453,3.60953715 32.0386992,3.24226674 32.0386992,2.7891878 C32.0386992,2.33610885 31.6714453,1.96883844 31.2183867,1.96883844 L26.2915898,1.96883844 C26.074043,1.96883844 25.8653555,2.05530327 25.7115469,2.20911877 L20.4395625,7.48109388 C14.6337187,7.68921651 9.51250781,11.0780797 6.19754297,13.9351924 C4.23232031,15.6290497 2.71219922,17.2889446 1.78311328,18.3831266 C1.20577734,19.0630321 0.806367187,19.5823133 0.572824219,19.8982298 C0.092859375,20.5477004 0.0021328125,20.7226809 0.0021328125,21.000041 C0.0021328125,21.291101 0.103523438,21.4537762 0.576351562,22.0838045 C0.81440625,22.4011157 1.21717969,22.9190843 1.78393359,23.5843876 C2.71958203,24.6829174 4.24470703,26.3465859 6.19655859,28.0342086 C9.30119531,30.7186378 13.9846055,33.8701739 19.3202461,34.43884 L15.3688008,38.3905449 L5.45458594,38.3905449 C5.10341016,37.2517359 4.04135156,36.4217885 2.78898047,36.4217885 C1.25105859,36.4219525 0,37.6730673 0,39.2109763 C0,40.7488852 1.25105859,42 2.78889844,42 C4.04135156,42 5.10349219,41.1700526 5.45450391,40.0312436 L15.7084922,40.0312436 C15.9260391,40.0312436 16.1347266,39.9447788 16.2885352,39.7909633 L21.5601094,34.5191522 C27.3670195,34.3118499 32.4891328,30.9225766 35.8045078,28.0650537 C37.7698125,26.3711964 39.2898516,24.7112194 40.2189375,23.6171195 C40.7962734,22.937214 41.1957656,22.4179328 41.4292266,22.1019343 C41.9093555,21.4525457 42,21.2774832 42,21.000041 C42,20.7089811 41.8986094,20.5463058 41.4257812,19.9162775 Z M2.78889844,40.3595474 C2.15561719,40.3595474 1.64054297,39.844368 1.64054297,39.2111403 C1.64054297,38.5778306 2.15569922,38.0627333 2.78889844,38.0627333 C3.42217969,38.0627333 3.93725391,38.5779127 3.93725391,39.2111403 C3.93733594,39.844368 3.42217969,40.3595474 2.78889844,40.3595474 Z M34.4176875,27.0916272 C31.2773672,29.7361874 26.4005273,32.8887899 21.0010664,32.8887899 C15.6001289,32.8887899 10.7103281,29.7089518 7.55942578,27.0415038 C4.60014844,24.5360749 2.52229688,21.960506 1.80624609,20.9908531 C2.49916406,20.0370329 4.56413672,17.4525223 7.58452734,14.9089471 C10.7249297,12.2643048 15.6017695,9.11170228 21.0011484,9.11170228 C26.4020859,9.11170228 31.2918867,12.2914584 34.4427891,14.9590704 C37.4021484,17.4644173 39.480082,20.0399862 40.1960508,21.0097211 C39.5030508,21.9633773 37.4382422,24.5478879 34.4176875,27.0916272 Z M28.7486719,13.2522516 C24.478207,8.98175895 17.529832,8.98175895 13.2593672,13.2523336 C11.5598438,14.9519334 10.486875,17.1055145 10.1564531,19.4800157 C9.83685938,21.7765017 10.2635859,24.1596165 11.3578008,26.1904734 C11.5726406,26.5892452 12.0701602,26.7384668 12.4689961,26.5236173 C12.867832,26.3086857 13.0169648,25.8110618 12.802043,25.412372 C10.8677461,21.8223592 11.5329375,17.299117 14.4194531,14.4124717 C18.0501563,10.7815234 23.9578008,10.7815234 27.5885859,14.4123896 C31.2193711,18.0433379 31.2193711,23.9512478 27.5885859,27.5821961 C24.7019063,30.4689234 20.1786211,31.1341447 16.5890156,29.1995148 C16.1903438,28.9848294 15.6927422,29.1337228 15.4778203,29.5325767 C15.2628984,29.9314305 15.4120313,30.4289724 15.8108672,30.6439039 C17.4018633,31.501169 19.2090938,31.9487516 21.0214922,31.9487516 C21.522457,31.9487516 22.0239141,31.914543 22.5211875,31.8453876 C24.8957461,31.5149509 27.0491484,30.4419339 28.7486719,28.7423341 C33.0190547,24.4715954 33.0190547,17.5228262 28.7486719,13.2522516 Z M14.4197813,27.5812117 C14.0995313,27.2609473 13.5801094,27.2609473 13.2597773,27.5812117 L13.2532148,27.5877745 C12.9328828,27.9081209 12.9328828,28.4275661 13.2532148,28.7479125 C13.4134219,28.9080447 13.6233398,28.9881928 13.8332578,28.9881928 C14.0431758,28.9881928 14.2531758,28.9080447 14.4133008,28.7479125 L14.4198633,28.7413497 C14.7401133,28.4210853 14.7401133,27.9016401 14.4197813,27.5812117 Z M25.5945703,20.1798557 C25.1415117,20.1798557 24.7742578,20.5471261 24.7742578,21.0002051 C24.7742578,23.0808571 23.081543,24.773648 21.0009844,24.773648 C18.9204258,24.773648 17.2277109,23.0808571 17.2277109,21.0002051 C17.2277109,18.919553 18.9204258,17.2267621 21.0009844,17.2267621 C21.454043,17.2267621 21.8212969,16.8594917 21.8212969,16.4064128 C21.8212969,15.9533338 21.454043,15.5860634 21.0009844,15.5860634 C18.0157852,15.5860634 15.587168,18.0147897 15.587168,21.0001231 C15.587168,23.9854564 18.0157852,26.4141827 21.0009844,26.4141827 C23.9861836,26.4141827 26.4148008,23.9854564 26.4148008,21.0001231 C26.4148008,20.5471261 26.0475469,20.1798557 25.5945703,20.1798557 Z M34.7873203,2.20936487 C34.9398984,2.36194985 35.0276719,2.57359999 35.0276719,2.78935187 C35.0276719,3.00510374 34.9398984,3.21675388 34.7873203,3.36933886 C34.6347422,3.52192384 34.4231016,3.60970122 34.2073594,3.60970122 C33.9916172,3.60970122 33.7799766,3.52192384 33.6273984,3.36933886 C33.4748203,3.21675388 33.3870469,3.00510374 33.3870469,2.78935187 C33.3870469,2.57359999 33.4748203,2.36194985 33.6273984,2.20936487 C33.7799766,2.05595955 33.9916172,1.96900251 34.2073594,1.96900251 C34.4231016,1.96900251 34.6347422,2.05595955 34.7873203,2.20936487 Z M39.2111016,0 C40.7489414,0 42,1.25119683 42,2.78910576 C42,4.32701469 40.7489414,5.57812949 39.2111016,5.57804745 C37.6733437,5.57804745 36.4222031,4.32693266 36.4222031,2.78902373 C36.4222031,1.2511148 37.6732617,0 39.2111016,0 Z M39.2111016,3.93751282 C39.8443008,3.93751282 40.359457,3.42233343 40.359457,2.78910576 C40.359457,2.1558781 39.8443828,1.6406987 39.2111016,1.6406987 C38.5779844,1.6406987 38.0627461,2.1558781 38.0627461,2.78910576 C38.0627461,3.42233343 38.5778203,3.93751282 39.2111016,3.93751282 Z M6.81031641,6.02907552 C7.263375,6.02907552 7.63054687,6.39634593 7.63062891,6.84942488 C7.63062891,7.30250382 7.263375,7.66977423 6.81031641,7.66977423 L0.822363281,7.66977423 C0.369304687,7.66977423 0.00205078125,7.30250382 0.00205078125,6.84942488 C0.00205078125,6.39634593 0.369304687,6.02907552 0.822363281,6.02907552 L6.81031641,6.02907552 Z M6.81031641,2.09156271 C7.263375,2.09156271 7.63054687,2.45883311 7.63062891,2.91191206 C7.63062891,3.36499101 7.263375,3.73226141 6.81031641,3.73226141 L0.822363281,3.73226141 C0.369304687,3.73226141 0.00205078125,3.36499101 0.00205078125,2.91191206 C0.00205078125,2.45883311 0.369304687,2.09156271 0.822363281,2.09156271 L6.81031641,2.09156271 Z M15.0463359,2.09156271 C15.4993945,2.09156271 15.8666484,2.45883311 15.8666484,2.91191206 C15.8666484,3.36499101 15.4993945,3.73226141 15.0463359,3.73226141 L10.1734336,3.73226141 C9.720375,3.73226141 9.35312109,3.36499101 9.35312109,2.91191206 C9.35312109,2.45883311 9.720375,2.09156271 10.1734336,2.09156271 L15.0463359,2.09156271 Z M41.1796875,34.330718 C41.6327461,34.330718 42,34.6980704 42,35.1510673 C42,35.6040642 41.6327461,35.9714167 41.1796875,35.9714167 L35.301082,35.9714167 C34.8480234,35.9714167 34.4807695,35.6040642 34.4807695,35.1510673 C34.4807695,34.6980704 34.8480234,34.330718 35.301082,34.330718 L41.1796875,34.330718 Z M24.3641016,38.2682308 C24.8171602,38.2682308 25.1844961,38.6355832 25.1844961,39.0885802 C25.1844961,39.5415771 24.8172422,39.9089295 24.3641836,39.9089295 L21.9917578,39.9089295 C21.5386992,39.9089295 21.1714453,39.5415771 21.1714453,39.0885802 C21.1714453,38.6355832 21.5386992,38.2682308 21.9917578,38.2682308 L24.3641016,38.2682308 Z M31.9106484,38.2682308 C32.363707,38.2682308 32.7309609,38.6355832 32.7309609,39.0885802 C32.7309609,39.5415771 32.363707,39.9089295 31.9106484,39.9089295 L27.80925,39.9089295 C27.3561914,39.9089295 26.9889375,39.5415771 26.9889375,39.0885802 C26.9889375,38.6355832 27.3561914,38.2682308 27.80925,38.2682308 L31.9106484,38.2682308 Z M41.1796875,38.2682308 C41.6327461,38.2682308 42,38.6355832 42,39.0885802 C42,39.5415771 41.6327461,39.9089295 41.1796875,39.9089295 L35.301082,39.9089295 C34.8480234,39.9089295 34.4807695,39.5415771 34.4807695,39.0885802 C34.4807695,38.6355832 34.8480234,38.2682308 35.301082,38.2682308 L41.1796875,38.2682308 Z M9.43966406,32.9764853 C9.89272266,32.9764853 10.2600586,33.3438377 10.2600586,33.7968346 C10.2600586,34.2498315 9.89280469,34.617184 9.43974609,34.617184 L0.8203125,34.617184 C0.367253906,34.617184 0,34.2498315 0,33.7968346 C0,33.3438377 0.367253906,32.9764853 0.8203125,32.9764853 L9.43966406,32.9764853 Z M5.25180469,29.6952519 C5.70486328,29.6952519 6.07211719,30.0626044 6.07211719,30.5156013 C6.07211719,30.9685982 5.70486328,31.3359506 5.25180469,31.3359506 L0.8203125,31.3359506 C0.367253906,31.3359506 0,30.9685982 0,30.5156013 C0,30.0626044 0.367253906,29.6952519 0.8203125,29.6952519 L5.25180469,29.6952519 Z" id="analysis"></path>
                </g>
            </g>
        </g>
    </g>
</svg>