<?xml version="1.0" encoding="UTF-8"?>
<svg width="22px" height="22px" viewBox="0 0 22 22" version="1.1" xmlns="http://www.w3.org/2000/svg" xmlns:xlink="http://www.w3.org/1999/xlink">
    <!-- Generator: Sketch 55.2 (78181) - https://sketchapp.com -->
    <title>灵活</title>
    <desc>Created with Sketch.</desc>
    <g id="Page-1" stroke="none" stroke-width="1" fill="none" fill-rule="evenodd">
        <g id="智能决策引擎" transform="translate(-563.000000, -2068.000000)" fill-rule="nonzero">
            <g id="优势" transform="translate(1.000000, 1568.000000)">
                <g id="版本灵活" transform="translate(538.000000, 468.000000)">
                    <g id="灵活" transform="translate(23.000000, 31.000000)">
                        <rect id="矩形" fill="#000000" opacity="0" x="0" y="0" width="22" height="22"></rect>
                        <path d="M11.3222221,3.51033331 C10.5735694,3.51033331 9.96666654,4.1172362 9.96666654,4.86588885 L9.96666654,6.22144438 C9.96666654,6.97009703 10.5735694,7.57699992 11.3222221,7.57699992 L12.6777776,7.57699992 C13.4264302,7.57699992 14.0333331,6.97009703 14.0333331,6.22144438 L14.0333331,4.86588885 C14.0333331,4.1172362 13.4264302,3.51033331 12.6777776,3.51033331 L11.3222221,3.51033331 L11.3222221,3.51033331 Z M11.3222221,2.15477778 L12.6777776,2.15477778 C14.1750829,2.15477778 15.3888887,3.36858355 15.3888887,4.86588885 L15.3888887,6.22144438 C15.3888887,7.71874968 14.1750829,8.93255545 12.6777776,8.93255545 L11.3222221,8.93255545 C9.82491677,8.93255545 8.611111,7.71874968 8.611111,6.22144438 L8.611111,4.86588885 C8.611111,3.36858355 9.82491677,2.15477778 11.3222221,2.15477778 L11.3222221,2.15477778 Z M4.5444444,16.0315998 C3.79579175,16.0315998 3.18888886,16.6385027 3.18888886,17.3871553 L3.18888886,18.7427108 C3.18888886,19.4913635 3.79579175,20.0982664 4.5444444,20.0982664 L5.89999993,20.0982664 C6.64865258,20.0982664 7.25555547,19.4913635 7.25555547,18.7427108 L7.25555547,17.3871553 C7.25555547,16.6385027 6.64865258,16.0315998 5.89999993,16.0315998 L4.5444444,16.0315998 L4.5444444,16.0315998 Z M4.5444444,14.6760442 L5.89999993,14.6760442 C7.39730523,14.6760442 8.611111,15.88985 8.611111,17.3871553 L8.611111,18.7427108 C8.611111,20.2400161 7.39730523,21.4538219 5.89999993,21.4538219 L4.5444444,21.4538219 C3.0471391,21.4538219 1.83333333,20.2400161 1.83333333,18.7427108 L1.83333333,17.3871553 C1.83333333,15.88985 3.0471391,14.6760442 4.5444444,14.6760442 L4.5444444,14.6760442 Z M18.0999997,16.0315998 C17.3513471,16.0315998 16.7444442,16.6385027 16.7444442,17.3871553 L16.7444442,18.7427108 C16.7444442,19.4913635 17.3513471,20.0982664 18.0999997,20.0982664 L19.4555553,20.0982664 C20.2042079,20.0982664 20.8111108,19.4913635 20.8111108,18.7427108 L20.8111108,17.3871553 C20.8111108,16.6385027 20.2042079,16.0315998 19.4555553,16.0315998 L18.0999997,16.0315998 L18.0999997,16.0315998 Z M18.0999997,14.6760442 L19.4555553,14.6760442 C20.9528606,14.6760442 22.1666663,15.88985 22.1666663,17.3871553 L22.1666663,18.7427108 C22.1666663,20.2400161 20.9528606,21.4538219 19.4555553,21.4538219 L18.0999997,21.4538219 C16.6026944,21.4538219 15.3888887,20.2400161 15.3888887,18.7427108 L15.3888887,17.3871553 C15.3888887,15.88985 16.6026944,14.6760442 18.0999997,14.6760442 L18.0999997,14.6760442 Z M5.89999993,15.573422 L4.5444444,15.573422 L4.5444444,13.3204887 C4.5444444,12.1975097 5.45479872,11.2871554 6.57777769,11.2871554 L17.422222,11.2871554 C18.5452009,11.2871554 19.4555553,12.1975097 19.4555553,13.3204887 L19.4555553,15.573422 L18.0999997,15.573422 L18.0999997,13.3204887 C18.0999997,13.1407309 18.0285912,12.9683354 17.9014832,12.8412274 C17.7743752,12.7141194 17.6019798,12.6427109 17.422222,12.6427109 L6.57777769,12.6427109 C6.39801985,12.6427109 6.22562442,12.7141194 6.09851643,12.8412274 C5.97140844,12.9683354 5.89999992,13.1407309 5.89999993,13.3204887 L5.89999993,15.573422 Z M12.6777776,11.9649332 L11.3222221,11.9649332 L11.3222221,8.35644434 L12.6777776,8.35644434 L12.6777776,11.9649332 Z" id="形状" fill="#FFB302"></path>
                    </g>
                </g>
            </g>
        </g>
    </g>
</svg>