<?xml version="1.0" encoding="UTF-8"?>
<svg width="22px" height="22px" viewBox="0 0 22 22" version="1.1" xmlns="http://www.w3.org/2000/svg" xmlns:xlink="http://www.w3.org/1999/xlink">
    <!-- Generator: Sketch 55.2 (78181) - https://sketchapp.com -->
    <title>系统高可用它</title>
    <desc>Created with Sketch.</desc>
    <g id="Page-1" stroke="none" stroke-width="1" fill="none" fill-rule="evenodd">
        <g id="智能决策引擎" transform="translate(-562.000000, -2184.000000)" fill-rule="nonzero">
            <g id="优势" transform="translate(1.000000, 1568.000000)">
                <g id="系统高可用" transform="translate(538.000000, 584.000000)">
                    <g id="系统高可用它" transform="translate(23.000000, 32.000000)">
                        <rect id="矩形" fill="#000000" opacity="0" x="0" y="0" width="22" height="22"></rect>
                        <path d="M11.1925,1.519375 C15.5590013,1.519375 19.09875,5.0591237 19.09875,9.425625 C19.09875,13.7921263 15.5590013,17.331875 11.1925,17.331875 C6.8259987,17.331875 3.28625,13.7921263 3.28625,9.425625 C3.28625,5.0591237 6.8259987,1.519375 11.1925,1.519375 L11.1925,1.519375 Z M11.1925,0.144375 C6.06660717,0.144375 1.91125,4.29973217 1.91125,9.425625 C1.91125,14.5515178 6.06660717,18.706875 11.1925,18.706875 C16.3183928,18.706875 20.47375,14.5515178 20.47375,9.425625 C20.47375,6.96408445 19.4959068,4.6033622 17.7553348,2.86279019 C16.0147628,1.12221817 13.6540405,0.144375 11.1925,0.144375 Z" id="形状" fill="#FFB302"></path>
                        <path d="M11.1925,7.3803125 C13.0909788,7.3803125 14.63,8.91933367 14.63,10.8178125 C14.63,12.7162913 13.0909788,14.2553125 11.1925,14.2553125 C9.29402117,14.2553125 7.755,12.7162913 7.755,10.8178125 C7.755,8.91933367 9.29402117,7.3803125 11.1925,7.3803125 L11.1925,7.3803125 Z M11.1925,6.0053125 C8.53462964,6.0053125 6.38,8.15994214 6.38,10.8178125 C6.38,13.4756829 8.53462964,15.6303125 11.1925,15.6303125 C13.8503704,15.6303125 16.005,13.4756829 16.005,10.8178125 C16.005,8.15994214 13.8503704,6.0053125 11.1925,6.0053125 Z M13.5884375,2.75 C12.9828228,2.75 12.491875,3.24094775 12.491875,3.8465625 C12.491875,4.45217725 12.9828228,4.943125 13.5884375,4.943125 C14.1940522,4.943125 14.685,4.45217725 14.685,3.8465625 C14.685,3.24094775 14.1940522,2.75 13.5884375,2.75 L13.5884375,2.75 Z M15.3175,20.625 L7.0675,20.625 C6.68780423,20.625 6.38,20.9328042 6.38,21.3125 C6.38,21.6921958 6.68780423,22 7.0675,22 L15.3175,22 C15.6971958,22 16.005,21.6921958 16.005,21.3125 C16.005,20.9328042 15.6971958,20.625 15.3175,20.625 Z" id="形状" fill="#FFB302"></path>
                        <path d="M10.016875,17.8165625 L8.641875,17.8165625 L7.954375,21.49125 L9.329375,21.49125 L10.016875,17.8165625 Z M13.743125,17.8165625 L12.368125,17.8165625 L13.055625,21.49125 L14.430625,21.49125 L13.743125,17.8165625 Z" id="形状" fill="#FFB302"></path>
                    </g>
                </g>
            </g>
        </g>
    </g>
</svg>