<?xml version="1.0" encoding="UTF-8"?>
<svg width="22px" height="22px" viewBox="0 0 22 22" version="1.1" xmlns="http://www.w3.org/2000/svg" xmlns:xlink="http://www.w3.org/1999/xlink">
    <!-- Generator: Sketch 55.2 (78181) - https://sketchapp.com -->
    <title>迭代周期</title>
    <desc>Created with Sketch.</desc>
    <g id="Page-1" stroke="none" stroke-width="1" fill="none" fill-rule="evenodd">
        <g id="Smart-Score-评分" transform="translate(-583.000000, -1166.000000)" fill-rule="nonzero">
            <g id="迭代周期" transform="translate(583.000000, 1165.000000)">
                <rect id="矩形" fill="#000000" opacity="0" x="0" y="0" width="22" height="22"></rect>
                <path d="M13.676333,8.19865361 L14.9762939,6.91632422 L15.7043229,7.63449988 L14.4043832,8.91682927 L13.676333,8.19865361 Z M10.4193296,15.9499877 L11.4489385,15.9499877 L11.4489385,17.7655827 L10.4193296,17.7655827 L10.4193296,15.9499877 Z M13.6756961,15.0435304 L14.4037464,14.3253548 L15.703686,15.6076842 L14.975657,16.3258598 L13.6756961,15.0435304 Z M17.4121788,12.1282336 L17.4121788,11.1125893 L15.5716201,11.1125893 L15.5716201,12.1282336 L17.4121788,12.1282336 Z M11.9053631,12.2161863 L11.9053631,7.100271 L10.7165363,7.100271 L10.7165363,11.7303523 L8.21787709,14.1972161 L9.05854749,15.0243902 L11.9053631,12.2161863 Z M11.3852514,3 L11.3852514,4.17270264 C15.4803352,4.17270264 18.8132961,7.46045824 18.8132961,11.5 C18.8132961,15.5395418 15.4803352,18.8272974 11.3852514,18.8272974 C7.69564246,18.8272974 4.62804469,16.161493 4.05486034,12.6768909 L5.20335196,13.8098054 L6.04402235,12.9805371 L4.36480447,11.3240946 L3.52413408,10.4948263 L2.68346369,11.3240946 L1,12.9805371 L1.84067039,13.8098054 L2.86815642,12.7962552 C3.50290503,16.8693028 7.08,20 11.3831285,20 C16.1341899,20 20,16.1866223 20,11.5 C20,6.81337768 16.1363128,3 11.3852514,3 Z" id="形状" fill="#FFB302"></path>
            </g>
        </g>
    </g>
</svg>