<?xml version="1.0" encoding="UTF-8"?>
<svg width="42px" height="42px" viewBox="0 0 42 42" version="1.1" xmlns="http://www.w3.org/2000/svg" xmlns:xlink="http://www.w3.org/1999/xlink">
    <!-- Generator: Sketch 55.2 (78181) - https://sketchapp.com -->
    <title>决策引擎</title>
    <desc>Created with Sketch.</desc>
    <g id="Page-1" stroke="none" stroke-width="1" fill="none" fill-rule="evenodd">
        <g id="首页" transform="translate(-380.000000, -942.000000)" fill="#FE9B01" fill-rule="nonzero">
            <g id="2" transform="translate(380.000000, 940.000000)">
                <g id="决策引擎" transform="translate(0.000000, 2.000000)">
                    <path d="M12.0554766,38.1735703 C12.4569375,38.3835703 12.6122227,38.8792031 12.4022227,39.2806641 C12.2557148,39.5608008 11.9701641,39.7210078 11.6746055,39.7210078 C11.5464727,39.7210078 11.4165352,39.6909023 11.2951289,39.6274102 L11.2665,39.6123984 C10.8650391,39.4023984 10.7097539,38.9067656 10.9197539,38.5053047 C11.1296719,38.1037617 11.6253867,37.9485586 12.0268477,38.1585586 L12.0554766,38.1735703 Z M29.9923477,2.01780469 C30.4009453,2.21353125 30.573457,2.70350391 30.3777305,3.11201953 C30.2368008,3.40626563 29.9432109,3.57812109 29.6373984,3.57812109 C29.5185352,3.57812109 29.3979492,3.55211719 29.2835977,3.49740234 L29.2617773,3.48706641 C28.8521133,3.29355469 28.6768125,2.80464844 28.8702422,2.39498437 C29.0637539,1.98540234 29.5526602,1.81010156 29.9623242,2.00353125 L29.9923477,2.01780469 Z M37.6428281,8.19434766 C40.4566641,11.8499063 42,16.3700742 42,21 C42,24.1233398 41.3303789,27.129293 40.0097578,29.9342695 C39.8699766,30.2312227 39.5749102,30.405375 39.2670469,30.405375 C39.1499883,30.405375 39.031125,30.3801914 38.918168,30.3270352 C38.5082578,30.1340977 38.3323828,29.6453555 38.5254023,29.2354453 C39.7423359,26.6507227 40.359375,23.8798711 40.359375,21 C40.359375,16.7662852 38.9598398,12.6321563 36.4059609,9.27707812 C36.0451875,9.43761328 35.6572617,9.51857813 35.2691719,9.51857813 C34.5549258,9.51857813 33.8406797,9.24672656 33.2969766,8.70302344 C32.2095703,7.61553516 32.2095703,5.84612109 33.2969766,4.75863281 C34.3844648,3.67122656 36.1538789,3.67122656 37.2413672,4.75863281 C38.1721758,5.68944141 38.3054766,7.11957422 37.6428281,8.19434766 Z M36.0811992,7.54285547 C36.5290078,7.09504688 36.5290078,6.36644531 36.0811992,5.91871875 C35.8573359,5.69485547 35.5632539,5.58288281 35.2691719,5.58288281 C34.9750898,5.58288281 34.6810078,5.69485547 34.4571445,5.91871875 C34.0093359,6.36652734 34.0093359,7.09512891 34.4571445,7.54285547 C34.8924023,7.97819531 35.592457,7.98902344 36.0423984,7.57788281 C36.0513398,7.56984375 36.059707,7.5613125 36.0690586,7.55360156 C36.0694687,7.55327344 36.0698789,7.55302734 36.0702891,7.55269922 C36.0738164,7.54925391 36.0776719,7.54638281 36.0811992,7.54285547 Z M8.70302344,33.2969766 C9.79042969,34.3844648 9.79042969,36.1538789 8.70302344,37.2413672 C8.15932031,37.7850703 7.44507422,38.0569219 6.73082812,38.0569219 C6.01658203,38.0569219 5.30233594,37.7850703 4.75863281,37.2413672 C3.82782422,36.3105586 3.69452344,34.8804258 4.35717187,33.8056523 C1.54333594,30.1500938 0,25.6299258 0,21 C0,18.0998672 0.580535156,15.2910352 1.72536328,12.6515156 C1.90575,12.2358633 2.38891406,12.0453047 2.80440234,12.2253633 C3.22005469,12.405668 3.41085937,12.88875 3.23055469,13.3044023 C2.17555078,15.7366289 1.640625,18.3257812 1.640625,21 C1.640625,25.2337148 3.04016016,29.3678437 5.59403906,32.7229219 C6.61869141,32.2669102 7.86376172,32.4578789 8.70302344,33.2969766 Z M7.54285547,36.0812812 C7.99066406,35.6334727 7.99066406,34.9048711 7.54285547,34.4570625 C7.31899219,34.2331992 7.02491016,34.1212266 6.73082812,34.1212266 C6.45315234,34.1212266 6.17613281,34.2224531 5.95751953,34.4221172 C5.94857812,34.4301563 5.94021094,34.4386875 5.93085938,34.4463984 C5.93044922,34.4467266 5.92995703,34.4470547 5.92954687,34.4473828 C5.92601953,34.4508281 5.92216406,34.4536992 5.91871875,34.4571445 C5.47091016,34.9049531 5.47091016,35.6335547 5.91871875,36.0812812 C6.36644531,36.5290898 7.09512891,36.5290898 7.54285547,36.0812812 Z M37.2413672,33.2969766 C38.3287734,34.3844648 38.3287734,36.1538789 37.2413672,37.2413672 C36.6976641,37.7850703 35.983418,38.0569219 35.2691719,38.0569219 C34.7607422,38.0569219 34.2526406,37.9183711 33.8056523,37.6428281 C30.1500937,40.4566641 25.6299258,42 21,42 C18.5865586,42 16.219957,41.5937812 13.9659844,40.792582 C13.5390937,40.6409062 13.3161328,40.1718516 13.4678086,39.7449609 C13.6194844,39.3180703 14.0885391,39.0950273 14.5154297,39.2467852 C16.592543,39.9850664 18.7743281,40.359375 21,40.359375 C25.2337148,40.359375 29.3678437,38.9598398 32.7229219,36.4059609 C32.2669102,35.3813086 32.4577969,34.1361563 33.2969766,33.2969766 C34.3844648,32.2095703 36.1538789,32.2095703 37.2413672,33.2969766 Z M36.0812812,36.0812812 C36.5290898,35.6334727 36.5290898,34.9048711 36.0811992,34.4571445 C35.8573359,34.2332812 35.5632539,34.1213086 35.2691719,34.1213086 C34.9750898,34.1213086 34.6810078,34.2332812 34.4571445,34.4571445 C34.0218047,34.8924023 34.0109766,35.592375 34.4221172,36.0424805 C34.4301563,36.0514219 34.4386875,36.0597891 34.4463984,36.0691406 C34.4467266,36.0695508 34.4469727,36.0699609 34.4473008,36.0703711 C34.4507461,36.0738984 34.4536172,36.0777539 34.4571445,36.0812812 C34.9048711,36.5290898 35.6335547,36.5290898 36.0812812,36.0812812 Z M27.1873711,0.926707031 C27.620332,1.06000781 27.8632266,1.51913672 27.7299258,1.95209766 C27.596625,2.38514063 27.137332,2.62787109 26.7045352,2.49465234 C24.864082,1.92798047 22.9447969,1.640625 21,1.640625 C16.7662852,1.640625 12.6321563,3.04016016 9.27707812,5.59403906 C9.73308984,6.61869141 9.54220312,7.86384375 8.70302344,8.70302344 C8.15932031,9.24672656 7.44507422,9.51857813 6.73082812,9.51857813 C6.01658203,9.51857813 5.30233594,9.24672656 4.75863281,8.70302344 C3.67122656,7.61553516 3.67122656,5.84612109 4.75863281,4.75863281 C5.68944141,3.82790625 7.11957422,3.69452344 8.19434766,4.35717187 C11.8499063,1.54333594 16.3700742,0 21,0 C23.1086953,0 25.1904023,0.311800781 27.1873711,0.926707031 Z M7.54277344,7.5429375 C7.98336328,7.10234766 7.98943359,6.39039844 7.56295312,5.94111328 C7.55991797,5.93750391 7.55647266,5.93446875 7.55351953,5.93085938 C7.55319141,5.93044922 7.55294531,5.93003906 7.55261719,5.92962891 C7.54917188,5.92610156 7.54630078,5.92224609 7.54277344,5.91871875 C7.31891016,5.69485547 7.02482813,5.58288281 6.73074609,5.58288281 C6.43666406,5.58288281 6.14258203,5.69485547 5.91871875,5.91871875 C5.47091016,6.36652734 5.47091016,7.09512891 5.91863672,7.5429375 C6.36636328,7.99074609 7.09504688,7.99074609 7.54277344,7.5429375 Z M36.5815898,18.3105234 L36.5835586,23.6777461 C36.5835586,23.895375 36.4971797,24.1041445 36.3433711,24.2580352 C36.1895625,24.4119258 35.980875,24.4983867 35.7632461,24.4983867 L34.0833281,24.4983867 C33.7776797,25.6448555 33.3247031,26.7389063 32.731043,27.764707 L33.9241055,28.9576875 C34.2444375,29.2781016 34.2444375,29.7975234 33.9241055,30.1178555 L30.1289297,33.9130313 C29.8085156,34.2332812 29.2890937,34.2332812 28.9687617,33.9130313 L27.7757813,32.7200508 C26.7499805,33.3137109 25.6559297,33.7666875 24.5094609,34.072418 L24.5094609,35.7611133 C24.5094609,36.2140078 24.1423711,36.5812617 23.6894766,36.5814258 L18.3222539,36.5833945 C18.3220898,36.5833945 18.3220078,36.5833945 18.3219258,36.5833945 C18.1043789,36.5833945 17.8957734,36.4970156 17.7419648,36.343207 C17.5880742,36.1893984 17.5016133,35.9807109 17.5016133,35.763082 L17.5016133,34.072418 C16.3550625,33.7667695 15.2609297,33.313793 14.2352109,32.7201328 L13.0378828,33.917543 C12.7174688,34.237793 12.1980469,34.237793 11.8777148,33.917543 L8.08253906,30.1223672 C7.76220703,29.8019531 7.76220703,29.2825312 8.08253906,28.9621992 L9.27994922,27.7649531 C8.68628906,26.7391523 8.2333125,25.6451016 7.92758203,24.4985508 L6.23691797,24.4985508 C6.01928906,24.4985508 5.81068359,24.4120898 5.65679297,24.2581992 C5.50290234,24.1043086 5.41660547,23.8955391 5.41660547,23.6779102 L5.41857422,18.3106875 C5.41873828,17.857793 5.78599219,17.4907031 6.23888672,17.4907031 L7.92741797,17.4907031 C8.23314844,16.3442344 8.686125,15.2501016 9.27978516,14.2243828 L8.08680469,13.0314023 C7.93291406,12.8775117 7.84653516,12.6687422 7.84653516,12.4511133 C7.84661719,12.2334844 7.93316016,12.0247969 8.08713281,11.8709883 L11.8844414,8.07786328 C12.2048555,7.75777734 12.7239492,7.75785938 13.0442812,8.07819141 L14.2352109,9.26912109 C15.2610117,8.67546094 16.3550625,8.22248437 17.5015312,7.91683594 L17.5015312,6.23691797 C17.5015312,6.01928906 17.5879922,5.81060156 17.7418828,5.65679297 C17.8957734,5.50298437 18.1043789,5.41660547 18.3218437,5.41660547 C18.3220078,5.41660547 18.3220898,5.41660547 18.3221719,5.41660547 L23.6893945,5.41857422 C24.1422891,5.41873828 24.5093789,5.78599219 24.5093789,6.23888672 L24.5093789,7.91683594 C25.6558477,8.22256641 26.7498984,8.67546094 27.7755352,9.26912109 L28.9621172,8.08253906 C29.2825312,7.76228906 29.8019531,7.76228906 30.1222852,8.08253906 L33.9174609,11.8776328 C34.237793,12.1980469 34.237793,12.7174688 33.9174609,13.0378008 L32.7308789,14.2243828 C33.324457,15.2500195 33.7774336,16.3440703 34.0831641,17.4905391 L35.7612773,17.4905391 C36.2141719,17.4905391 36.5814258,17.8576289 36.5815898,18.3105234 Z M33.43725,22.8579258 L34.9426055,22.8579258 L34.9412109,19.1313281 L33.437168,19.1313281 C33.0504727,19.1313281 32.7163594,18.8613633 32.6351484,18.4833633 C32.3329453,17.0769375 31.7844844,15.7524609 31.0051055,14.5466016 C30.7951875,14.2219219 30.8405508,13.7947031 31.1139609,13.521293 L32.177332,12.4579219 L29.5422422,9.82283203 L28.4788711,10.8862031 C28.205543,11.1595312 27.7782422,11.2049766 27.4535625,10.9950586 C26.2477852,10.2156797 24.9232266,9.66721875 23.5168008,9.36501562 C23.1388008,9.28380469 22.8688359,8.94960938 22.8688359,8.56299609 L22.8688359,7.05895312 L19.1422383,7.05755859 L19.1422383,8.56283203 C19.1422383,8.94952734 18.8722734,9.28364062 18.4942734,9.36485156 C17.0879297,9.66705469 15.7633711,10.2155156 14.5573477,10.9948945 C14.232668,11.2047305 13.8054492,11.1593672 13.5320391,10.885957 L12.4639922,9.81791016 L9.82742578,12.4515234 L10.8969492,13.5209648 C11.1702773,13.794375 11.2157227,14.2216758 11.0058047,14.5463555 C10.2264258,15.7522969 9.67796484,17.0768555 9.37576172,18.4832812 C9.29455078,18.8612812 8.96035547,19.1312461 8.57374219,19.1312461 L7.05895312,19.1312461 L7.05755859,22.8578438 L8.57366016,22.8578438 C8.96035547,22.8578438 9.29446875,23.1278086 9.37567969,23.5058086 C9.67780078,24.9122344 10.2262617,26.236793 11.0057227,27.4427344 C11.2155586,27.7674961 11.1701953,28.1947148 10.8967852,28.468125 L9.82266797,29.5422422 L12.4577578,32.177332 L13.531875,31.1032148 C13.6903594,30.9447305 13.9004414,30.8628633 14.1123281,30.8630273 C14.2661367,30.8630273 14.4207656,30.9061758 14.5573477,30.9944414 C15.7632891,31.7739023 17.0878477,32.3222813 18.4942734,32.6244844 C18.8722734,32.7056953 19.1422383,33.0398906 19.1422383,33.4265039 L19.1422383,34.9426055 L22.8688359,34.9412109 L22.8688359,33.4264219 C22.8688359,33.0397266 23.1388008,32.7056133 23.5168008,32.6244023 C24.9232266,32.3221992 26.2477852,31.7737383 27.4537266,30.9943594 C27.7785703,30.7844414 28.205707,30.8298047 28.4791172,31.1032148 L29.5488867,32.1730664 L32.1839766,29.5379766 L31.114125,28.468125 C30.8407148,28.1947148 30.7953516,27.7674961 31.0051875,27.4428164 C31.7846484,26.236793 32.3330273,24.9122344 32.6352305,23.5058906 C32.7164414,23.1278906 33.0506367,22.8579258 33.43725,22.8579258 Z M27.7172109,18.839707 C28.5292383,21.3707813 27.8668359,24.1100508 25.9884844,25.9884023 C24.6130664,27.3636562 22.8065742,28.0513242 21,28.0513242 C19.1934258,28.0513242 17.3869336,27.3637383 16.0115977,25.9885664 C13.2610078,23.2378945 13.2610078,18.7622695 16.0115977,16.0116797 C17.8454883,14.177707 20.530207,13.4984062 23.0180508,14.2389023 C23.4523242,14.3681016 23.6994844,14.8249336 23.5702852,15.259125 C23.4410859,15.6933164 22.9841719,15.9405586 22.5500625,15.8113594 C20.6402109,15.2430469 18.5792578,15.7642734 17.1717656,17.1717656 C15.0608555,19.2826758 15.0608555,22.7174062 17.1717656,24.8283984 C19.2826758,26.9393086 22.7174062,26.9393906 24.8283984,24.8283984 C26.2700156,23.3866992 26.7783633,21.2839922 26.1550078,19.340918 C26.0166211,18.9095156 26.2541016,18.4475977 26.6855039,18.3092109 C27.1167422,18.1707422 27.5787422,18.4083047 27.7172109,18.839707 Z M26.0642812,16.088625 C26.3797734,16.4137969 26.3718984,16.9331367 26.0467266,17.2486289 C25.8874219,17.4032578 25.6813594,17.4802031 25.475625,17.4802031 C25.2615234,17.4802031 25.047668,17.3968594 24.8868047,17.2310742 C24.8673633,17.2109766 24.8476758,17.191043 24.8278242,17.1711914 C24.5077383,16.8505313 24.5081484,16.3311914 24.8288086,16.0111055 C25.1494687,15.6909375 25.6688906,15.6915117 25.9888945,16.0120898 C26.0142422,16.0374375 26.0393437,16.0629492 26.0642812,16.088625 Z" id="gear"></path>
                </g>
            </g>
        </g>
    </g>
</svg>