<?xml version="1.0" encoding="UTF-8"?>
<svg width="32px" height="32px" viewBox="0 0 32 32" version="1.1" xmlns="http://www.w3.org/2000/svg" xmlns:xlink="http://www.w3.org/1999/xlink">
    <!-- Generator: Sketch 55.2 (78181) - https://sketchapp.com -->
    <title>流程模型</title>
    <desc>Created with Sketch.</desc>
    <g id="Page-1" stroke="none" stroke-width="1" fill="none" fill-rule="evenodd">
        <g id="智能决策引擎" transform="translate(-1228.000000, -734.000000)">
            <g id="模型管理" transform="translate(1175.000000, 701.000000)">
                <g id="流程模型" transform="translate(53.000000, 33.000000)">
                    <rect id="矩形" fill="#000000" fill-rule="nonzero" opacity="0" x="2" y="1" width="30" height="30"></rect>
                    <rect id="矩形" fill="#FFE462" x="23" y="23" width="6" height="5"></rect>
                    <path d="M19.9790202,10.800895 L24.3611192,10.800895 L24.3611192,19.5753159 L25.8218188,19.5753159 L25.8218188,10.800895 L25.8218188,9.33842655 L19.9790202,9.33842655 L19.9790202,2.8644359 L3.91135411,2.8644359 L3.91135411,16.6505589 L19.9789902,16.6505589 L19.9789902,10.800895 L19.9790202,10.800895 Z M18.5183206,15.1882404 L5.37205376,15.1882404 L5.37205376,4.32672449 L18.5183206,4.32672449 L18.5183206,15.1882404 Z M19.9790202,19.5754059 L19.9790202,23.9626613 L15.5969213,23.9626613 L15.5969213,19.5754059 L3.91135411,19.5754059 L3.91135411,29.0812709 L15.5969213,29.0812709 L15.5969213,25.4250698 L19.9790202,25.4250698 L19.9790202,29.0812709 L30.2038878,29.0812709 L30.2038878,19.5754059 L19.9790202,19.5754059 Z M14.1362217,23.9626613 L14.1362217,25.4250398 L14.1362217,27.6187725 L5.37205376,27.6187725 L5.37205376,21.0378743 L14.1362217,21.0378743 L14.1362217,23.9626613 Z M28.7431881,27.6187725 L21.4397199,27.6187725 L21.4397199,21.0378743 L28.7431881,21.0378743 L28.7431881,27.6187725 Z" id="形状" fill="#FE9B01" fill-rule="nonzero"></path>
                </g>
            </g>
        </g>
    </g>
</svg>