<?xml version="1.0" encoding="UTF-8"?>
<svg width="42px" height="42px" viewBox="0 0 42 42" version="1.1" xmlns="http://www.w3.org/2000/svg" xmlns:xlink="http://www.w3.org/1999/xlink">
    <!-- Generator: Sketch 55.2 (78181) - https://sketchapp.com -->
    <title>模型部署平台</title>
    <desc>Created with Sketch.</desc>
    <g id="Page-1" stroke="none" stroke-width="1" fill="none" fill-rule="evenodd">
        <g id="首页" transform="translate(-380.000000, -1072.000000)" fill="#FE9B01" fill-rule="nonzero">
            <g id="3" transform="translate(380.000000, 1070.000000)">
                <g id="模型部署平台" transform="translate(0.000000, 2.000000)">
                    <path d="M41.1796875,0 C41.6326641,0 42,0.365771362 42,0.817082732 L42,33.497124 C42,33.948272 41.6326641,34.314125 41.1796875,34.314125 L35.3240508,34.314125 L36.7569727,36.8434785 C36.9796055,37.236456 36.8402344,37.734745 36.4456641,37.956479 C36.3183516,38.0280483 36.1798828,38.0621173 36.0433008,38.0621173 C35.7569297,38.0621173 35.4789258,37.9125244 35.3281523,37.6464271 L31.4883516,30.8685049 L27.6713555,33.0633782 L29.8775039,36.7423338 C30.1098164,37.1297557 29.982832,37.6313943 29.5939219,37.8626873 C29.4621797,37.9411194 29.3171484,37.9784564 29.1740859,37.9784564 C28.8947695,37.9784564 28.6225898,37.8363799 28.4690273,37.5802501 L26.2504102,33.8804609 L21.4101562,36.6636566 C21.2832539,36.7366965 21.141668,36.7731347 21,36.7731347 C20.858332,36.7731347 20.7167461,36.7366965 20.5898438,36.6636566 C20.3360391,36.5177402 20.1796875,36.2479665 20.1796875,35.9561337 L20.1796875,34.3140433 L0.8203125,34.3140433 C0.367335938,34.3140433 0,33.9481903 0,33.4970423 L0,0.817001032 C0,0.365853062 0.367335938,0 0.8203125,0 L41.1796875,0 Z M21.8203125,34.5410062 L35.7058242,26.5565368 L21.8203125,18.5720675 L21.8203125,34.5410062 Z M21.0711211,9.80442088 C21.5241797,9.80964969 21.8870859,10.1797512 21.8817539,10.6308991 C21.8765859,11.0788608 21.5103164,11.4383412 21.0616875,11.4383412 C21.0584063,11.4383412 21.055207,11.4383412 21.0519258,11.4382595 L21,11.4380144 C20.5470234,11.4380144 20.1796875,11.0721614 20.1796875,10.6210134 C20.1796875,10.1698654 20.5470234,9.80401238 21,9.80401238 C21.023707,9.80401238 21.0474141,9.80409408 21.0711211,9.80442088 Z M40.359375,32.6800413 L40.359375,1.63400206 L1.640625,1.63400206 L1.640625,32.6800413 L20.1797695,32.6800413 L20.1797695,24.4644423 C18.7579219,24.3071696 17.4567422,23.7462984 16.3945195,22.8994768 L13.4456602,25.8364321 C13.7626289,26.3553095 13.9453125,26.9641387 13.9453125,27.6147166 C13.9453125,29.5068093 12.3997617,31.0461209 10.5,31.0461209 C8.60023828,31.0461209 7.0546875,29.5068093 7.0546875,27.6147166 C7.0546875,25.7226239 8.60023828,24.1833122 10.5,24.1833122 C11.1532148,24.1833122 11.7644297,24.3652584 12.2854922,24.6809476 L15.2343516,21.7439923 C14.2229883,20.4855656 13.6171875,18.8905345 13.6171875,17.1570217 C13.6171875,15.4583948 14.2033008,13.8486577 15.2313164,12.5671099 L12.2854922,9.63317747 C11.7645117,9.94886667 11.1532148,10.1308128 10.5,10.1308128 C8.60023828,10.1308128 7.0546875,8.59150115 7.0546875,6.69940846 C7.0546875,4.80731577 8.60023828,3.26800413 10.5,3.26800413 C12.3997617,3.26800413 13.9453125,4.80731577 13.9453125,6.69940846 C13.9453125,7.34998638 13.7626289,7.95873385 13.4455781,8.47769291 L16.3918125,11.4120338 C16.7328164,11.1407895 17.1001523,10.8967513 17.4924258,10.6854748 C17.8907695,10.4706035 18.3886172,10.6186441 18.6041953,11.0154615 C18.8196914,11.4123606 18.6713789,11.9081168 18.2728711,12.122743 C16.4131406,13.124468 15.2578125,15.0534891 15.2578125,17.1570217 C15.2578125,20.0330287 17.4007969,22.4189168 20.1796875,22.8167146 L20.1796875,17.1570217 C20.1796875,16.8651889 20.3360391,16.5954152 20.5898438,16.4494988 C20.8436484,16.3035007 21.1563516,16.3035007 21.4101563,16.4494988 L26.3326875,19.2799989 C26.60175,18.6085057 26.7421875,17.8866853 26.7421875,17.1570217 C26.7421875,15.0830646 25.6107305,13.1671154 23.7892266,12.1567303 C23.3935078,11.9371204 23.2512656,11.4395667 23.4717656,11.0453638 C23.6923477,10.6511608 24.192,10.5097379 24.5876367,10.7291844 C24.9497227,10.9300849 25.2904805,11.1590086 25.6081055,11.4120338 L28.5543398,8.47769291 C28.2373711,7.95881555 28.0546875,7.34998638 28.0546875,6.69940846 C28.0546875,4.80731577 29.6002383,3.26800413 31.5,3.26800413 C33.3997617,3.26800413 34.9453125,4.80731577 34.9453125,6.69940846 C34.9453125,8.59150115 33.3997617,10.1308128 31.5,10.1308128 C30.8467852,10.1308128 30.2355703,9.94886667 29.7145078,9.63317747 L26.767043,12.5687439 C27.7952227,13.8520074 28.3828125,15.4632151 28.3828125,17.1570217 C28.3828125,18.1737795 28.1703516,19.1790175 27.7649531,20.1036176 L37.7566875,25.8490139 C38.0104922,25.9949303 38.1668438,26.2647041 38.1668438,26.5565368 C38.1668438,26.8483696 38.0104922,27.1181434 37.7566875,27.2640597 L32.9092148,30.0514222 L34.3984102,32.6800413 L40.359375,32.6800413 Z M29.6953125,6.69940846 C29.6953125,7.69051241 30.5048789,8.49681073 31.5,8.49681073 C32.4951211,8.49681073 33.3046875,7.69051241 33.3046875,6.69940846 C33.3046875,5.70830451 32.4951211,4.90200619 31.5,4.90200619 C30.5048789,4.90200619 29.6953125,5.70830451 29.6953125,6.69940846 Z M12.3046875,6.69940846 C12.3046875,5.70830451 11.4951211,4.90200619 10.5,4.90200619 C9.50487891,4.90200619 8.6953125,5.70830451 8.6953125,6.69940846 C8.6953125,7.69051241 9.50487891,8.49681073 10.5,8.49681073 C11.4951211,8.49681073 12.3046875,7.69051241 12.3046875,6.69940846 Z M12.3046875,27.6146349 C12.3046875,26.6235309 11.4951211,25.8172326 10.5,25.8172326 C9.50487891,25.8172326 8.6953125,26.6235309 8.6953125,27.6146349 C8.6953125,28.6057388 9.50487891,29.4120371 10.5,29.4120371 C11.4951211,29.4120371 12.3046875,28.6057388 12.3046875,27.6146349 Z M31.4721094,39.6286351 C31.6246875,39.7805972 31.7124609,39.9913835 31.7124609,40.2062548 C31.7124609,40.4211261 31.6246055,40.6319123 31.4721094,40.7837928 C31.3195313,40.9358367 31.1087109,41.0232558 30.8921484,41.0232558 C30.6764062,41.0232558 30.4647656,40.935755 30.3121875,40.7837928 C30.1596094,40.6319123 30.0718359,40.4211261 30.0718359,40.2062548 C30.0718359,39.9913835 30.1596914,39.7805972 30.3121875,39.6286351 C30.4647656,39.4765912 30.6764062,39.3892538 30.8921484,39.3892538 C31.1086289,39.3892538 31.3195313,39.4765912 31.4721094,39.6286351 Z" id="click"></path>
                </g>
            </g>
        </g>
    </g>
</svg>