<?xml version="1.0" encoding="UTF-8"?>
<svg width="22px" height="22px" viewBox="0 0 22 22" version="1.1" xmlns="http://www.w3.org/2000/svg" xmlns:xlink="http://www.w3.org/1999/xlink">
    <!-- Generator: Sketch 55.2 (78181) - https://sketchapp.com -->
    <title>页面操作</title>
    <desc>Created with Sketch.</desc>
    <g id="Page-1" stroke="none" stroke-width="1" fill="none" fill-rule="evenodd">
        <g id="智能决策引擎" transform="translate(-562.000000, -1836.000000)" fill-rule="nonzero">
            <g id="优势" transform="translate(1.000000, 1568.000000)">
                <g id="友好的" transform="translate(538.000000, 236.000000)">
                    <g id="页面操作" transform="translate(23.000000, 32.000000)">
                        <rect id="矩形" fill="#000000" opacity="0" x="0" y="0" width="22" height="22"></rect>
                        <path d="M13.4514286,21.9489343 C11.6692219,21.9510137 9.93316629,21.3824245 8.4975,20.3264286 C8.30351132,20.2223089 8.1260929,20.0899071 7.97107143,19.9335714 L7.66071429,19.6428571 C7.55857143,19.5525 7.44857143,19.4385714 7.33857143,19.3246429 L2.28642857,14.2567857 C1.39496608,13.3603273 1.39496608,11.9121727 2.28642857,11.0157143 C3.68617166,9.62067936 5.95061405,9.62067936 7.35035714,11.0157143 L7.55464286,11.2239286 L7.55464286,2.65964286 C7.55455828,1.72763367 8.05173069,0.866385473 8.85886023,0.400356458 C9.66598977,-0.0656725572 10.6604388,-0.0656725572 11.4675683,0.400356458 C12.2746979,0.866385473 12.7718703,1.72763367 12.7717857,2.65964286 L12.7717857,6.89071429 C13.4579998,6.64768581 14.2162987,6.71805824 14.8460714,7.08321429 L19.14,9.56214286 C19.8776397,9.98615353 20.3462897,10.7588329 20.3814286,11.6089286 L20.3814286,15.015 C20.3771034,18.8411768 17.2776023,21.942435 13.4514286,21.9489343 L13.4514286,21.9489343 Z M4.80857143,11.5421429 C4.27689187,11.54136 3.7667027,11.7519367 3.39035714,12.1275 C3.11123198,12.4092385 3.11123198,12.8632615 3.39035714,13.145 L8.45821429,18.2128571 C8.56035716,18.3228571 8.65071429,18.4132143 8.745,18.4996429 L9.075,18.8296429 C9.12962189,18.8809117 9.19192133,18.9233284 9.25964286,18.9553571 C9.29983251,18.97516 9.33799015,18.998844 9.37357143,19.0260714 C10.548307,19.9049984 11.9764268,20.3792004 13.4435714,20.3775046 C16.4064721,20.3775046 18.8095937,17.9778975 18.8139286,15.015 L18.8139286,11.6442857 C18.7898687,11.3420853 18.6177482,11.0714001 18.3542857,10.9214286 L14.0603571,8.4425 C13.6176389,8.18724466 13.0518515,8.33835557 12.7953571,8.78035714 L12.6657143,9.00821429 C12.4876715,9.31596486 12.1251552,9.46580489 11.7817857,9.37357143 C11.4389136,9.28124967 11.2005733,8.97044101 11.2003571,8.61535714 L11.2003571,2.65964286 C11.2002747,2.08690298 10.7359542,1.62264927 10.1632143,1.62264927 C9.59047439,1.62264927 9.12615386,2.08690298 9.12607143,2.65964286 L9.12607143,13.1214286 C9.12474146,13.4381938 8.93332556,13.7231798 8.64059525,13.8442207 C8.34786494,13.9652617 8.01107996,13.8986813 7.78642857,13.6753571 L6.23857143,12.1275 C5.86029168,11.7524339 5.34912938,11.5420384 4.81642857,11.5421429 L4.80857143,11.5421429 Z" id="形状" fill="#FFB302"></path>
                    </g>
                </g>
            </g>
        </g>
    </g>
</svg>