<?xml version="1.0" encoding="UTF-8"?>
<svg width="42px" height="42px" viewBox="0 0 42 42" version="1.1" xmlns="http://www.w3.org/2000/svg" xmlns:xlink="http://www.w3.org/1999/xlink">
    <!-- Generator: Sketch 55.2 (78181) - https://sketchapp.com -->
    <title>评分</title>
    <desc>Created with Sketch.</desc>
    <g id="Page-1" stroke="none" stroke-width="1" fill="none" fill-rule="evenodd">
        <g id="首页" transform="translate(-380.000000, -812.000000)" fill="#FE9B01" fill-rule="nonzero">
            <g id="1" transform="translate(380.000000, 810.000000)">
                <g id="评分" transform="translate(0.000000, 2.000000)">
                    <path d="M35.929659,29.8603369 C34.5511883,29.8603369 33.2793659,30.322912 32.2592336,31.0999134 L25.8304721,24.6716047 C26.6075283,23.6515442 27.0703,22.3795653 27.0703,21.0012736 C27.0703,20.3432177 26.9636517,19.7098533 26.7689774,19.116028 L33.3857681,15.90819 C34.2507681,17.1041258 35.6567213,17.8844085 37.2422538,17.8844085 C39.8656387,17.8844085 42,15.7501975 42,13.1269973 C42,10.5037972 39.8656387,8.3695862 37.2422538,8.3695862 C34.6188689,8.3695862 32.4845077,10.5037972 32.4845077,13.1269973 C32.4845077,13.5799747 32.5494811,14.0176943 32.6682709,14.4330193 L26.0518905,17.6406932 C25.1066581,16.2246671 23.5824894,15.2277395 21.8204128,14.9885359 L21.8204128,12.8078952 C22.9591709,12.4567188 23.789141,11.3946582 23.789141,10.1423668 C23.789141,8.60452414 22.537992,7.35354526 21.0001231,7.35354526 C19.4622541,7.35354526 18.2111051,8.60460617 18.2111051,10.1423668 C18.2111051,11.3948223 19.0410752,12.4568828 20.1798333,12.8078952 L20.1798333,14.9885359 C19.1185183,15.1325831 18.1436705,15.5511073 17.3295336,16.1712647 L12.0268144,10.868919 C13.3198024,9.21131041 13.7768315,7.01524776 13.2167637,4.95732598 C13.0977278,4.52009861 12.6468514,4.26210985 12.2098394,4.38130148 C11.7726633,4.50024701 11.5148204,4.95100956 11.6337743,5.3881549 C12.1104103,7.1394433 11.6137572,9.02288428 10.3380791,10.3094648 C10.3327467,10.3145507 10.3270861,10.3188984 10.3218358,10.3241484 C10.3172417,10.3287422 10.3133039,10.3338281 10.3088739,10.3385039 C8.32480472,12.3075036 5.10878325,12.303238 3.13053873,10.3250508 C1.14753605,8.34226974 1.14753605,5.11589268 3.13053873,3.13302963 C4.38464108,1.87893356 6.16566822,1.37271778 7.89492991,1.77860916 C8.33571567,1.88196873 8.77740384,1.60864009 8.88101679,1.16755725 C8.98454771,0.726556431 8.71095372,0.285145458 8.26992185,0.181539797 C5.98370976,-0.355109633 3.62875052,0.314430668 1.97020488,1.97277749 C-0.65244168,4.59523937 -0.65244168,8.86234883 1.97020488,11.4848927 C3.28156918,12.7961647 5.00402178,13.4517597 6.72655641,13.4517597 C8.19100208,13.4517597 9.65429924,12.9760596 10.8660704,12.0283508 L16.1691997,17.3311067 C15.3922256,18.3511672 14.929618,19.622982 14.929618,21.0011096 C14.929618,24.3480728 17.652678,27.0709411 20.9998769,27.0709411 C22.3782656,27.0709411 23.650088,26.608366 24.6701383,25.8314466 L31.0989818,32.2597554 C30.3219256,33.2798159 29.859318,34.5517128 29.859318,35.9299224 C29.859318,39.2768856 32.582378,41.9997539 35.9295769,41.9997539 C39.2767759,41.9997539 42,39.2768856 42,35.9299224 C42,32.5831232 39.2767759,29.8603369 35.929659,29.8603369 Z M37.2420898,10.0098861 C38.9608507,10.0098861 40.3592564,11.4081934 40.3592564,13.1268333 C40.3592564,14.8454732 38.9608507,16.2437805 37.2420898,16.2437805 C35.5233288,16.2437805 34.1249231,14.8454732 34.1249231,13.1268333 C34.1249231,11.4081114 35.5233288,10.0098861 37.2420898,10.0098861 Z M19.8514385,10.1420387 C19.8514385,9.50883831 20.3665499,8.99368111 20.9998769,8.99368111 C21.6331219,8.99368111 22.1483154,9.50875628 22.1483154,10.1420387 C22.1483154,10.7752391 21.633204,11.2903963 20.9998769,11.2903963 C20.366632,11.2903963 19.8514385,10.7753211 19.8514385,10.1420387 Z M20.9998769,25.4305592 C18.557302,25.4305592 16.5701975,23.4435946 16.5701975,21.0011916 C16.5701975,18.5587887 18.557302,16.571824 20.9998769,16.571824 C23.4424519,16.571824 25.4295564,18.5587887 25.4295564,21.0011916 C25.4295564,23.4435125 23.4424519,25.4305592 20.9998769,25.4305592 Z M35.929659,40.359536 C33.487084,40.359536 31.4999795,38.3725714 31.4999795,35.9301685 C31.4999795,33.4877655 33.487084,31.5008009 35.929659,31.5008009 C38.3722339,31.5008009 40.3593385,33.4877655 40.3593385,35.9301685 C40.3593385,38.3725714 38.3721519,40.359536 35.929659,40.359536 Z M11.5109647,2.00099629 C11.8298432,2.32288751 11.8273821,2.84222831 11.5053861,3.16100234 C11.3454957,3.31948701 11.1367931,3.39856528 10.9281725,3.39856528 C10.7170088,3.39856528 10.5058451,3.31751826 10.3453804,3.15558827 L10.3242148,3.13417807 C10.0030393,2.81458373 10.0018087,2.29532496 10.3214256,1.97417202 C10.6411245,1.65301908 11.1604198,1.65187064 11.4815133,1.97138295 L11.5109647,2.00099629 Z M13.6024205,28.3981272 C13.9227757,28.7184598 13.9227757,29.2378826 13.6024205,29.5582153 L8.64942584,34.5108611 C9.19423474,35.2845813 9.51549233,36.2264659 9.51549233,37.2425889 C9.51549233,39.865789 7.38113106,42 4.75774617,42 C2.13436127,42 0,39.865789 0,37.2425889 C0,34.6193887 2.13436127,32.4851777 4.75774617,32.4851777 C5.77377662,32.4851777 6.71556343,32.8063306 7.48925606,33.3508551 L12.4423327,28.3981272 C12.7626879,28.0777945 13.2820653,28.0777945 13.6024205,28.3981272 Z M4.75774617,40.359536 C6.47650709,40.359536 7.87491284,38.9612288 7.87491284,37.2425889 C7.87491284,35.523949 6.47650709,34.1256417 4.75774617,34.1256417 C3.03898524,34.1256417 1.6405795,35.523949 1.6405795,37.2425889 C1.6405795,38.9612288 3.03898524,40.359536 4.75774617,40.359536 Z M15.5506394,26.4501275 C15.7031465,26.6026238 15.7910083,26.8143469 15.7910083,27.0300075 C15.7910083,27.245668 15.7032286,27.457309 15.5506394,27.6098874 C15.3981323,27.7624658 15.1864764,27.8502394 14.9707186,27.8502394 C14.7550428,27.8502394 14.5433869,27.7624658 14.3907978,27.6098874 C14.2382086,27.4573911 14.1504288,27.245668 14.1504288,27.0300075 C14.1504288,26.8143469 14.2382086,26.6027059 14.3907978,26.4501275 C14.5433049,26.2975491 14.7550428,26.2097755 14.9707186,26.2097755 C15.1863943,26.2097755 15.3980502,26.2975491 15.5506394,26.4501275 Z" id="network"></path>
                </g>
            </g>
        </g>
    </g>
</svg>