<?xml version="1.0" encoding="UTF-8"?>
<svg width="32px" height="32px" viewBox="0 0 32 32" version="1.1" xmlns="http://www.w3.org/2000/svg" xmlns:xlink="http://www.w3.org/1999/xlink">
    <!-- Generator: Sketch 55.2 (78181) - https://sketchapp.com -->
    <title>流程设置</title>
    <desc>Created with Sketch.</desc>
    <g id="Page-1" stroke="none" stroke-width="1" fill="none" fill-rule="evenodd">
        <g id="智能决策引擎" transform="translate(-818.000000, -736.000000)">
            <g id="流程设置" transform="translate(765.000000, 700.000000)">
                <g transform="translate(53.000000, 36.000000)">
                    <rect id="矩形" fill="#000000" fill-rule="nonzero" opacity="0" x="1" y="1" width="30" height="30"></rect>
                    <circle id="椭圆形" fill="#FFE462" cx="15.5" cy="6.5" r="2.5"></circle>
                    <path d="M15.9474759,9.38946039 C17.7527637,9.38946039 19.2162398,7.92598431 19.2162398,6.12069648 C19.2162398,4.31540866 17.7527637,2.85193258 15.9474759,2.85193258 C14.1421881,2.85193258 12.678742,4.31540866 12.678742,6.12069648 C12.678742,7.92598431 14.1422181,9.38946039 15.9474759,9.38946039 Z M15.9474759,4.49046906 C16.8463852,4.49046906 17.5777333,5.22178715 17.5777333,6.12072648 C17.5777333,7.01963582 16.8464152,7.75098388 15.9474759,7.75098388 C15.0485666,7.75098388 14.3172485,7.01966579 14.3172485,6.12072648 C14.3172485,5.22178718 15.0485666,4.49046906 15.9474759,4.49046906 Z M6.11808678,18.0672785 C4.31279896,18.0672785 2.84932287,19.5307546 2.84932287,21.3360424 C2.84932287,23.1413302 4.31279896,24.6048062 6.11808678,24.6048062 C7.9233746,24.6048062 9.38685068,23.1413302 9.38685068,21.3360424 C9.38685068,19.5307546 7.9233746,18.0672785 6.11808678,18.0672785 L6.11808678,18.0672785 Z M6.11808678,22.9662698 C5.21917744,22.9662698 4.48782936,22.2349517 4.48782936,21.3360124 C4.48782936,20.437103 5.21914744,19.705755 6.11808678,19.705755 C7.01702611,19.705755 7.7483442,20.437073 7.7483442,21.3360124 C7.7483442,22.2349517 7.01699611,22.9662698 6.11808678,22.9662698 Z M25.7837042,18.0672785 C23.9784164,18.0672785 22.5149403,19.5307546 22.5149403,21.3360424 C22.5149403,23.1413302 23.9784164,24.6048062 25.7837042,24.6048062 C27.5889921,24.6048062 29.0524681,23.1413302 29.0524681,21.3360424 C29.0524681,19.5307546 27.588992,18.0672785 25.7837042,18.0672785 Z M25.7837042,22.9662698 C24.8847649,22.9662698 24.1534468,22.2349517 24.1534468,21.3360124 C24.1534468,20.437103 24.8847649,19.705755 25.7837042,19.705755 C26.6826136,19.705755 27.4139616,20.437073 27.4139616,21.3360124 C27.4139616,22.2349517 26.6826135,22.9662698 25.7837042,22.9662698 Z M15.9245584,26.7699938 C13.5892,26.7699938 11.3130549,25.9527353 9.51571624,24.4694314 L8.47243308,25.7327099 C10.5629889,27.4584167 13.2095625,28.4085002 15.9245285,28.4085002 C18.6627118,28.4085002 21.3268934,27.4436283 23.4258183,25.6919145 L22.3761459,24.4342454 C20.570858,25.9403467 18.2798946,26.7699938 15.9245584,26.7699938 L15.9245584,26.7699938 Z M26.0012399,16.6933124 L27.6397463,16.6933124 C27.6397463,12.1574004 24.982374,7.98753742 20.8692946,6.07021214 L20.1772422,7.55510582 C23.7150759,9.20483104 26.0012399,12.7914694 26.0012399,16.6933124 Z M11.6718747,7.55510582 L10.9798223,6.07021214 C6.8671329,7.98753739 4.2097605,12.1574304 4.2097605,16.6933124 L5.84826698,16.6933124 C5.84826698,12.7914694 8.13443093,9.20441113 11.6718747,7.55510582 Z" id="形状" fill="#FE9B01" fill-rule="nonzero"></path>
                </g>
            </g>
        </g>
    </g>
</svg>