<?xml version="1.0" encoding="UTF-8"?>
<svg width="22px" height="22px" viewBox="0 0 22 22" version="1.1" xmlns="http://www.w3.org/2000/svg" xmlns:xlink="http://www.w3.org/1999/xlink">
    <!-- Generator: Sketch 55.2 (78181) - https://sketchapp.com -->
    <title>安全合规</title>
    <desc>Created with Sketch.</desc>
    <g id="Page-1" stroke="none" stroke-width="1" fill="none" fill-rule="evenodd">
        <g id="Smart-Score-评分" transform="translate(-583.000000, -1515.000000)" fill-rule="nonzero">
            <g id="安全合规" transform="translate(583.000000, 1515.000000)">
                <rect id="矩形" fill="#000000" opacity="0" x="0" y="0" width="22" height="22"></rect>
                <path d="M17.830453,4.77671723 C17.8135329,4.60844136 17.7110958,4.45971493 17.5589265,4.38144367 C15.7726065,3.46376091 13.6839298,3 11.3525937,3 C11.2332364,3 11.1168706,3.00393562 10.9994952,3.00588506 L10.9994952,3.00783447 C10.8821385,3.00391724 10.7667635,3 10.6474063,3 C8.31605152,3 6.22737479,3.46569196 4.44107345,4.38142529 C4.28888551,4.45969655 4.18644844,4.60842298 4.16954697,4.77864828 C4.14569048,5.03108047 3.57876233,11.0146943 4.66088594,14.2099862 C4.68176972,14.2999908 5.49934057,17.2213517 11.0004861,19 L11.0004861,19 C16.5006781,17.2213517 17.3182303,14.2999908 17.3391141,14.2099862 C18.4212377,11.0146943 17.8543095,5.03108045 17.830453,4.77671723 Z M16.3829135,13.9722046 C16.3749184,13.9977565 15.6401032,16.3939996 10.9994863,18 L10.9994863,18 C6.35990159,16.395958 5.62506765,13.9997149 5.61707256,13.9722046 C4.71451091,11.3046828 5.04000063,6.36477897 5.13783711,5.14996463 C6.72930793,4.38726918 8.58035603,4 10.6460513,4 C10.7658461,4 10.8816621,4.00982908 10.9994863,4.01180598 L10.9994863,4.01180598 L10.9994863,4.01180598 L11.000481,4.01180598 L11.000481,4.01180598 C11.1192998,4.00787066 11.2351346,4 11.3539347,4 C13.41963,4 15.2706968,4.38726918 16.8621489,5.14996463 C16.9600041,6.36477895 17.2854939,11.3027244 16.3829135,13.9722046 Z M14.1218248,7.15877668 L9.78223309,11.7233591 L7.87917476,9.70783983 C7.67823153,9.49400842 7.3516681,9.49611767 7.15170701,9.70571067 C6.94976275,9.91743282 6.94976275,10.2604267 7.14972383,10.472129 L9.34614152,12.7967547 C9.41145421,12.866619 9.49081913,12.904725 9.57320604,12.9280264 C9.64856684,12.9703509 9.72895168,13 9.8113386,13 C9.94296501,13 10.0745914,12.9470695 10.1750725,12.8412283 L14.8492926,7.92519498 C15.0502358,7.71560199 15.0502358,7.37049884 14.8492926,7.15877668 C14.6483305,6.94707444 14.3227681,6.94707444 14.1218248,7.15877668 Z" id="形状" fill="#FFB302"></path>
            </g>
        </g>
    </g>
</svg>