<?xml version="1.0" encoding="UTF-8"?>
<svg width="52px" height="52px" viewBox="0 0 52 52" version="1.1" xmlns="http://www.w3.org/2000/svg" xmlns:xlink="http://www.w3.org/1999/xlink">
    <!-- Generator: Sketch 55.2 (78181) - https://sketchapp.com -->
    <title>智能营销图标（暗）</title>
    <desc>Created with Sketch.</desc>
    <g id="Page-1" stroke="none" stroke-width="1" fill="none" fill-rule="evenodd">
        <g id="首页规范" transform="translate(-941.000000, -691.000000)">
            <g id="智能营销图标" transform="translate(941.000000, 691.000000)">
                <circle id="椭圆形" fill="#0F0F0F" opacity="0.100538" cx="26" cy="26" r="26"></circle>
                <g id="智能营销" transform="translate(11.000000, 12.000000)">
                    <path d="M27.9294418,29.0625 L2.07055815,29.0625 C1.17962351,29.0625 0.454545455,28.3381384 0.454545455,27.448084 L0.454545455,1.6147507 C0.454545455,0.724361632 1.17962351,0 2.07055815,0 L27.9294418,0 C28.8207115,0 29.5454545,0.724361632 29.5454545,1.6147507 L29.5454545,9.24866539 C29.5454545,9.78356829 29.1115469,10.2173819 28.5757799,10.2173819 C28.040348,10.2173819 27.6061053,9.78356829 27.6061053,9.24866539 L27.6061053,1.93743305 L2.39389472,1.93743305 L2.39389472,27.1250669 L27.6061053,27.1250669 L27.6061053,17.910879 C27.6061053,17.3759761 28.040348,16.9421625 28.5757799,16.9421625 C29.1115469,16.9421625 29.5454545,17.3759761 29.5454545,17.910879 L29.5454545,27.448084 C29.5454545,28.3381384 28.8207115,29.0625 27.9294418,29.0625" id="Fill-1" fill="#0F0F0F"></path>
                    <path d="M15.0001672,5.65518884 C12.8460484,5.65518884 10.8206684,6.48072679 9.29753724,7.98038822 C7.77440605,9.47972049 6.93576432,11.4731247 6.93576432,13.5935854 C6.93576432,15.7140461 7.77440605,17.7077795 9.29753724,19.2071118 C10.8206684,20.706444 12.8460484,21.5323112 15.0001672,21.5323112 C17.154286,21.5323112 19.1793316,20.706444 20.7024628,19.2071118 C22.2259283,17.7077795 23.0645701,15.7140461 23.0645701,13.5935854 C23.0645701,11.4731247 22.2259283,9.47972049 20.7024628,7.98038822 C19.1793316,6.48072679 17.154286,5.65518884 15.0001672,5.65518884 M15.0001672,23.4375 C13.6505827,23.4375 12.3407902,23.177133 11.1072378,22.6633113 C9.91648693,22.1675935 8.84711842,21.4579206 7.92889268,20.5543713 C7.01100132,19.6504928 6.2900637,18.5978332 5.7864774,17.4256878 C5.26449984,16.2114097 5,14.9220827 5,13.5939146 C5,12.2650882 5.26449984,10.9757611 5.7864774,9.76181221 C6.2900637,8.58933766 7.01100132,7.53667804 7.92889268,6.63312873 C8.84711842,5.72925026 9.91648693,5.01957729 11.1072378,4.52385953 C12.3407902,4.01036703 13.6505827,3.75 15.0001672,3.75 C16.3497517,3.75 17.6595442,4.01036703 18.8927622,4.52385953 C20.0838475,5.01957729 21.153216,5.72925026 22.0711073,6.63312873 C22.9893331,7.53667804 23.7102707,8.58933766 24.213857,9.76181221 C24.7355002,10.9760903 25,12.2650882 25,13.5939146 C25,14.9220827 24.7355002,16.2114097 24.213857,17.4256878 C23.7102707,18.5981623 22.9893331,19.6504928 22.0711073,20.5543713 C21.153216,21.4579206 20.0838475,22.1675935 18.8927622,22.6633113 C17.6595442,23.177133 16.3497517,23.4375 15.0001672,23.4375" id="Fill-3" fill="#0F0F0F"></path>
                    <path d="M5,8.90629205 C5,10.4135801 5.77962465,11.806165 7.04529144,12.5596408 C8.31095824,13.3134531 9.87053374,13.3134531 11.1365267,12.5596408 C12.4021935,11.806165 13.1818182,10.4135801 13.1818182,8.90629205 C13.1818182,7.39900396 12.4021935,6.00641912 11.1365267,5.25260689 C9.87053374,4.49913104 8.31095824,4.49913104 7.04529144,5.25260689 C5.77962465,6.00641912 5,7.39900396 5,8.90629205" id="Fill-5" fill="#525252"></path>
                    <path d="M9.09090909,5.68355199 C7.36787702,5.68355199 5.9658686,7.12903912 5.9658686,8.90625 C5.9658686,10.6831268 7.36787702,12.128948 9.09090909,12.128948 C10.8139412,12.128948 12.2159496,10.6831268 12.2159496,8.90625 C12.2159496,7.12903912 10.8139412,5.68355199 9.09090909,5.68355199 M9.09090909,14.0625 C6.33386342,14.0625 4.09090909,11.7494534 4.09090909,8.90625 C4.09090909,6.06304665 6.33386342,3.75 9.09090909,3.75 C11.8479548,3.75 14.0909091,6.06304665 14.0909091,8.90625 C14.0909091,11.7494534 11.8479548,14.0625 9.09090909,14.0625" id="Fill-7" fill="#0F0F0F"></path>
                    <path d="M19.5313716,12.3757966 L24.8174056,17.8269075 C25.0608648,18.0779696 25.0608648,18.4845304 24.8174056,18.7355925 L19.5313716,24.1867034 C19.2882353,24.4377655 18.8936636,24.4377655 18.6502044,24.1867034 L13.3641704,18.7355925 C13.1210341,18.4848634 13.1210341,18.0779696 13.3641704,17.8269075 L18.6502044,12.3757966 C18.8936636,12.1247345 19.2879124,12.1247345 19.5313716,12.3757966" id="Fill-9" fill="#525252"></path>
                    <path d="M14.3960411,18.28125 L19.5454545,23.2596868 L24.694868,18.28125 L19.5454545,13.3028132 L14.3960411,18.28125 Z M19.5454545,25.3125 C19.1034978,25.3125 18.6879624,25.145966 18.3750241,24.84375 L12.7575758,19.4128185 C12.4449806,19.1106024 12.2727273,18.7085324 12.2727273,18.28125 C12.2727273,17.8536359 12.4449806,17.4518976 12.7575758,17.1496815 L18.3750241,11.71875 C18.6879624,11.416534 19.1034978,11.25 19.5454545,11.25 C19.9877544,11.25 20.4032898,11.416534 20.715885,11.71875 L26.3333333,17.1496815 C26.6459285,17.4518976 26.8181818,17.8536359 26.8181818,18.28125 C26.8181818,18.7085324 26.6459285,19.1106024 26.3333333,19.4128185 L20.715885,24.84375 C20.4032898,25.145966 19.9874113,25.3125 19.5454545,25.3125 L19.5454545,25.3125 Z" id="Fill-11" fill="#0F0F0F"></path>
                </g>
            </g>
        </g>
    </g>
</svg>