<?xml version="1.0" encoding="UTF-8"?>
<svg width="22px" height="22px" viewBox="0 0 22 22" version="1.1" xmlns="http://www.w3.org/2000/svg" xmlns:xlink="http://www.w3.org/1999/xlink">
    <!-- Generator: Sketch 55.2 (78181) - https://sketchapp.com -->
    <title>启动时间</title>
    <desc>Created with Sketch.</desc>
    <g id="Page-1" stroke="none" stroke-width="1" fill="none" fill-rule="evenodd">
        <g id="Smart-Score-评分" transform="translate(-583.000000, -1399.000000)" fill-rule="nonzero">
            <g id="启动时间" transform="translate(583.000000, 1399.000000)">
                <rect id="矩形" fill="#000000" opacity="0" x="0" y="0" width="22" height="22"></rect>
                <path d="M11,11.6688012 C10.1494373,11.6690372 9.40481321,11.0978214 9.18468602,10.276237 C8.96455882,9.4546525 9.32384521,8.58766591 10.0605879,8.1626162 C10.7973305,7.7375665 11.727729,7.86049387 12.3288,8.4623 C12.8667191,8.99935505 13.0277851,9.80774152 12.7367824,10.5099541 C12.4457798,11.2121667 11.7601213,11.6696636 11,11.6688012 Z M11,9.23229785 C10.7333556,9.23260492 10.5040749,9.42126068 10.4524233,9.68285476 C10.4007717,9.94444885 10.5411411,10.2060918 10.7876589,10.3077203 C11.0341767,10.4093488 11.3181541,10.3226455 11.4658644,10.1006522 C11.6135747,9.87865894 11.5838606,9.58323094 11.3949,9.3951 C11.2901561,9.2904744 11.148046,9.2318886 11,9.23229785 L11,9.23229785 Z" id="形状" fill="#FFB302"></path>
                <path d="M11,17.5131 C10.9435552,17.5129465 10.8873633,17.5055529 10.8328,17.4911 C7.0686,16.5077 4.2768,17.2634 4.2493,17.2711 C4.05042262,17.3272397 3.83673105,17.2869897 3.67190554,17.1623445 C3.50708003,17.0376993 3.41,16.8430491 3.41,16.6364 C3.41,14.2758 4.51,13.1065 5.4406,12.5422 C5.87589527,12.2822662 6.35132594,12.0964059 6.8475,11.9922 C7.04,5.5902 10.4346,2.7522 10.5875,2.6312 C10.8302447,2.43341129 11.1785553,2.43341129 11.4213,2.6312 C11.5698,2.7522 14.9644,5.5902 15.1613,11.9922 C15.6574741,12.0964059 16.1329047,12.2822662 16.5682,12.5422 C17.49,13.1065 18.59,14.2758 18.59,16.6364 C18.59,16.843305 18.4928707,17.0382111 18.3277626,17.1629067 C18.1626544,17.2876022 17.9486259,17.327654 17.7496,17.2711 C17.7232,17.2634 14.9314,16.5077 11.1672,17.4911 C11.1126367,17.5055529 11.0564448,17.5129465 11,17.5131 L11,17.5131 Z M6.941,15.6618 C8.30968599,15.6646588 9.67285756,15.8353323 11,16.17 C13.7731,15.4748 16.0259,15.6365 17.2095,15.818 C16.8245,13.3892 14.7367,13.2264 14.4782,13.2154 C14.1227437,13.2029515 13.8410821,12.9110741 13.8413,12.5554 C13.8413,7.7704 11.88,5.049 11,4.07 C10.12,5.049 8.1587,7.7715 8.1587,12.5598 C8.15886065,12.9167135 7.87525289,13.2090926 7.5185,13.2198 C7.2622,13.2297 5.1755,13.3925 4.7905,15.8213 C5.50227845,15.7139166 6.22116786,15.6605974 6.941,15.6618 Z M11.11,17.9453949 C11.0731941,17.9452648 11.0364281,17.9478384 11,17.9531 C10.9635719,17.9478384 10.9268059,17.9452648 10.89,17.9453949 C10.5336,17.9453949 9.5568,18.1654 11,20.8362 C12.4465,18.1621 11.4708,17.9453949 11.11,17.9453949 Z" id="形状" fill="#FFB302"></path>
            </g>
        </g>
    </g>
</svg>