<?xml version="1.0" encoding="UTF-8"?>
<svg width="22px" height="22px" viewBox="0 0 22 22" version="1.1" xmlns="http://www.w3.org/2000/svg" xmlns:xlink="http://www.w3.org/1999/xlink">
    <!-- Generator: Sketch 55.2 (78181) - https://sketchapp.com -->
    <title>可视化</title>
    <desc>Created with Sketch.</desc>
    <g id="Page-1" stroke="none" stroke-width="1" fill="none" fill-rule="evenodd">
        <g id="智能决策引擎" transform="translate(-562.000000, -1952.000000)" fill-rule="nonzero">
            <g id="优势" transform="translate(1.000000, 1568.000000)">
                <g id="多功能" transform="translate(538.000000, 352.000000)">
                    <g id="可视化" transform="translate(23.000000, 32.000000)">
                        <rect id="矩形" fill="#000000" opacity="0" x="0" y="0" width="22" height="22"></rect>
                        <path d="M10.9999998,19.3469408 C7.30867912,19.3469408 3.9217973,17.0636496 0.915464,12.5731771 C0.572970333,12.0404092 0.572970333,11.3934767 0.915464,10.8607088 C3.9217973,6.40829111 7.30867912,4.125 10.9999998,4.125 C14.6913204,4.125 18.0782022,6.40829111 21.0845355,10.8987636 C21.4270292,11.4315316 21.4270292,12.078464 21.0845355,12.611232 C18.0782022,17.0636496 14.6913204,19.3469408 10.9999998,19.3469408 Z M10.9999998,5.64719408 C7.84144704,5.64719408 4.8731686,7.70215608 2.17127411,11.7359704 C4.91122345,15.7697847 7.8795019,17.8247467 10.9999998,17.8247467 C14.1204976,17.8247467 17.1268309,15.7697847 19.8287254,11.7359704 C17.1268309,7.70215608 14.1585525,5.64719408 10.9999998,5.64719408 Z M10.9999998,14.7803585 C9.32558627,14.7803585 7.9556116,13.4103839 7.9556116,11.7359704 C7.9556116,10.0615569 9.32558627,8.69158223 10.9999998,8.69158223 C12.6744132,8.69158223 14.0443879,10.0615569 14.0443879,11.7359704 C14.0443879,13.4103839 12.6744132,14.7803585 10.9999998,14.7803585 Z M10.9999998,10.2137763 C10.162793,10.2137763 9.47780567,10.8987636 9.47780567,11.7359704 C9.47780567,12.5731771 10.162793,13.2581645 10.9999998,13.2581645 C11.8372065,13.2581645 12.5221938,12.5731771 12.5221938,11.7359704 C12.5221938,10.8987636 11.8372065,10.2137763 10.9999998,10.2137763 Z" id="形状" fill="#FFB302"></path>
                    </g>
                </g>
            </g>
        </g>
    </g>
</svg>