<?xml version="1.0" encoding="UTF-8"?>
<svg width="26px" height="26px" viewBox="0 0 26 26" version="1.1" xmlns="http://www.w3.org/2000/svg" xmlns:xlink="http://www.w3.org/1999/xlink">
    <!-- Generator: Sketch 55.2 (78181) - https://sketchapp.com -->
    <title>微博</title>
    <desc>Created with Sketch.</desc>
    <g id="Page-1" stroke="none" stroke-width="1" fill="none" fill-rule="evenodd">
        <g id="首页" transform="translate(-1317.000000, -2889.000000)" fill-rule="nonzero">
            <g id="底" transform="translate(0.000000, 2709.000000)">
                <g id="文案" transform="translate(4.000000, 51.000000)">
                    <g id="关于我们" transform="translate(1223.000000, 0.000000)">
                        <g id="编组-12" transform="translate(90.000000, 129.000000)">
                            <g id="微博">
                                <path d="M24.6724398,11.3566448 C24.5495517,11.715069 24.2099924,11.9662723 23.8154569,11.9969069 C23.4209215,12.0275414 23.0425554,11.8284169 22.8614572,11.4975637 C22.7450369,11.2800585 22.7191657,11.0257917 22.8000131,10.7929692 L22.7967792,10.7929692 C23.3303723,9.24898797 22.9455385,7.5548975 21.7878032,6.34789634 C20.6333018,5.14395863 18.8805294,4.60785405 17.189201,4.94789752 C16.9337231,4.99997625 16.6685435,4.95402443 16.4486385,4.81923242 C16.2319673,4.68444042 16.0767403,4.47612549 16.021764,4.23717603 C15.9085776,3.74089636 16.2481368,3.24768015 16.778496,3.14045923 C19.0713293,2.68094102 21.5581965,3.35183761 23.2430571,5.11026062 C24.9343855,6.86255673 25.390365,9.25511488 24.6724398,11.3566448 L24.6724398,11.3566448 Z" id="路径" fill="#FF9933"></path>
                                <path d="M17.0966714,7.75591711 C16.8647452,7.80233836 16.6189727,7.76254872 16.4147391,7.63654821 C16.2105056,7.5138635 16.0755038,7.31823113 16.0201184,7.09607234 C15.9162709,6.63185993 16.224352,6.17427913 16.715897,6.07480505 C17.9551445,5.82280403 19.2393926,6.21738457 20.087481,7.10933555 C20.9701852,8.03776036 21.2021114,9.29776546 20.8282602,10.4052436 C20.755567,10.6240866 20.596334,10.80314 20.3782542,10.9059299 C20.1636359,11.0087198 19.9144018,11.0286146 19.6859371,10.9589827 C19.2082384,10.8130874 18.9486195,10.3256644 19.1043908,9.87471516 L19.1009292,9.87471516 C19.2913164,9.31434447 19.1563146,8.70092094 18.7409244,8.26323496 C18.3289957,7.82554898 17.7024488,7.63323241 17.0966714,7.75591711 L17.0966714,7.75591711 Z" id="路径" fill="#FF9933"></path>
                                <path d="M18.9433853,12.3377319 C20.3890815,12.7464079 22,13.7359876 22,15.4786988 C22,18.3657028 17.4373195,22 10.5805893,22 C5.35066436,22 0,19.6880615 0,15.8844557 C0,13.8936198 1.38214905,11.5962769 3.75880994,9.42737505 C6.93298671,6.53161374 10.6377816,5.21217412 12.0326401,6.48490792 C12.6458694,7.04537785 12.7062392,8.01452377 12.3122473,9.17341211 C12.1057192,9.75723496 12.9127672,9.43321328 12.9127672,9.43613239 C15.4800693,8.45531001 17.720104,8.39692773 18.536684,9.46532354 C18.9719815,10.0316317 18.9306759,10.831469 18.5271519,11.7539091 C18.3428654,12.1742615 18.5875217,12.238482 18.9433853,12.3377319 L18.9433853,12.3377319 Z" id="路径" fill="#E6162D"></path>
                                <path d="M10.452177,20.9443074 C14.3073687,20.533106 17.2347307,17.9893948 16.9851562,15.2544271 C16.7355817,12.5290223 13.4059644,10.6451459 9.54783647,11.0563474 C5.68970852,11.4675488 2.76528277,14.0144476 3.01485726,16.7430401 C3.26443174,19.4748201 6.59404902,21.3523213 10.452177,20.9443074 Z" id="路径" fill="#FFFFFF"></path>
                                <path d="M11.4418274,13.1368516 C13.4996784,13.6698561 14.5492778,15.6156434 13.7095983,17.503635 C12.8571963,19.4397897 10.4049503,20.4672682 8.32483506,19.7929854 C6.31469308,19.1443897 5.46547171,17.1536502 6.34649913,15.3619847 C7.20844292,13.6120604 9.45394961,12.6199016 11.4418274,13.1368516 Z" id="路径" fill="#1A1A1A"></path>
                                <path d="M9.78115419,17.408728 C10.2132422,16.8934177 9.98509972,16.3019531 9.27647544,16.0811058 C8.57476456,15.8678739 7.66219476,16.0887212 7.23010678,16.5837238 C6.7911054,17.0812648 6.99850763,17.6752678 7.6967618,17.906269 C8.40192937,18.1423471 9.34215281,17.9164229 9.78115419,17.408728 Z" id="路径" fill="#FFFFFF"></path>
                            </g>
                        </g>
                    </g>
                </g>
            </g>
        </g>
    </g>
</svg>