<?xml version="1.0" encoding="UTF-8"?>
<svg width="26px" height="26px" viewBox="0 0 26 26" version="1.1" xmlns="http://www.w3.org/2000/svg" xmlns:xlink="http://www.w3.org/1999/xlink">
    <!-- Generator: Sketch 55.2 (78181) - https://sketchapp.com -->
    <title>微信</title>
    <desc>Created with Sketch.</desc>
    <g id="Page-1" stroke="none" stroke-width="1" fill="none" fill-rule="evenodd">
        <g id="首页" transform="translate(-1227.000000, -2888.000000)" fill="#67C213" fill-rule="nonzero">
            <g id="底" transform="translate(0.000000, 2709.000000)">
                <g id="文案" transform="translate(4.000000, 51.000000)">
                    <g id="关于我们" transform="translate(1223.000000, 0.000000)">
                        <g id="编组-11" transform="translate(0.000000, 128.000000)">
                            <g id="微信">
                                <path d="M16.8769716,8.8514256 C17.192429,8.8514256 17.4290221,8.8514256 17.7444795,8.93310067 C16.955836,5.257722 13.170347,2.48076923 8.83280757,2.48076923 C3.94321765,2.48076923 0,5.91112265 0,10.3215771 C0,12.8535046 1.340694,14.8953816 3.5488959,16.5288833 L2.68138801,19.305836 L5.75709779,17.6723344 C6.86119875,17.9173597 7.72870661,18.1623849 8.83280757,18.1623849 L9.70031546,18.1623849 C9.54258675,17.5089843 9.46372239,16.9372587 9.46372239,16.2021829 C9.30599369,12.1184289 12.6971609,8.8514256 16.8769716,8.8514256 Z M12.1451104,6.31949806 C12.7760252,6.31949806 13.2492114,6.80954855 13.2492114,7.4629492 C13.2492114,8.11634984 12.7760252,8.60640035 12.1451104,8.60640035 C11.5141956,8.60640035 10.8044164,8.11634987 10.8044164,7.4629492 C10.8044164,6.80954855 11.4353312,6.31949806 12.1451104,6.31949806 Z M5.91482649,8.60640035 C5.28391167,8.60640035 4.57413249,8.11634987 4.57413249,7.4629492 C4.57413249,6.80954855 5.20504731,6.31949806 5.91482649,6.31949806 C6.54574131,6.31949806 7.01892743,6.80954855 7.01892743,7.4629492 C7.01892743,8.19802494 6.54574131,8.60640035 5.91482649,8.60640035 Z M25,16.0388328 C25,12.3634541 21.4511041,9.34147609 17.5078864,9.34147609 C13.2492114,9.34147609 9.93690851,12.3634541 9.93690851,16.0388328 C9.93690851,19.7142115 13.2492114,22.7361895 17.5078864,22.7361895 C18.3753943,22.7361895 19.2429022,22.4911642 20.1892744,22.246139 L22.6340694,23.6346154 L22.0031546,21.3477131 C23.659306,19.9592367 25,18.0807098 25,16.0388328 L25,16.0388328 Z M14.9842271,14.8137066 C14.511041,14.8137066 14.1167192,14.3236561 14.1167192,13.9152807 C14.1167192,13.4252302 14.5899054,13.0168548 14.9842271,13.0168548 C15.6940063,13.0168548 16.0883281,13.5069052 16.0883281,13.9152807 C16.0883281,14.4053311 15.6940063,14.8137066 14.9842271,14.8137066 Z M19.873817,14.8137066 C19.4006309,14.8137066 19.0063091,14.3236561 19.0063091,13.9152807 C19.0063091,13.4252302 19.4794953,13.0168548 19.873817,13.0168548 C20.5047319,13.0168548 20.977918,13.5069052 20.977918,13.9152807 C20.977918,14.4053311 20.5047319,14.8137066 19.873817,14.8137066 L19.873817,14.8137066 Z" id="形状"></path>
                            </g>
                        </g>
                    </g>
                </g>
            </g>
        </g>
    </g>
</svg>