<?xml version="1.0" encoding="UTF-8"?>
<svg width="26px" height="26px" viewBox="0 0 26 26" version="1.1" xmlns="http://www.w3.org/2000/svg" xmlns:xlink="http://www.w3.org/1999/xlink">
    <!-- Generator: Sketch 55.2 (78181) - https://sketchapp.com -->
    <title>知乎</title>
    <desc>Created with Sketch.</desc>
    <g id="Page-1" stroke="none" stroke-width="1" fill="none" fill-rule="evenodd">
        <g id="首页" transform="translate(-1406.000000, -2889.000000)" fill-rule="nonzero">
            <g id="底" transform="translate(0.000000, 2709.000000)">
                <g id="文案" transform="translate(4.000000, 51.000000)">
                    <g id="关于我们" transform="translate(1223.000000, 0.000000)">
                        <g id="编组-13" transform="translate(179.000000, 129.000000)">
                            <g id="知乎">
                                <path d="M4.69304749,1 L21.3069525,1 C23.3362052,1 24.985574,2.567143 25,4.51223148 L25,20.4877685 C24.985574,22.432857 23.3362052,24.0045991 21.3069525,24 L4.69304749,24 C2.66379483,24 1.01442597,22.432857 1,20.4877685 L1,4.51223148 C1.01442597,2.567143 2.66379483,0.995400913 4.69304749,1 Z" id="路径" fill="#0084FF"></path>
                                <path d="M7.25576797,12.9719251 L9.93045483,12.9719251 C9.98978246,12.125 9.93045483,10.3048128 9.93045483,9.01804813 L8.62524719,9.01804813 C8.25939352,9.77606952 7.91825972,10.3937166 7.24588001,10.6417112 C6.93440999,10.7727273 6.57844428,10.8008021 6.24719841,10.7259358 C6.54383651,10.7586898 7.55735003,7.29144386 8.05174686,6.65508021 C8.39288067,6.25735293 8.89716546,6.01871656 9.436058,6 C9.33717862,6.67847593 9.13941989,7.34291445 8.84278181,7.96991979 L13.7916941,7.96991979 L13.7916941,9.02272726 L11.1071193,9.02272726 C11.1071193,10.2954545 11.156559,12.1156417 11.1071193,12.9766043 L14.2119315,12.9766043 L14.1970995,14.03877 L11.0527357,14.0247326 C11.0230718,14.2540107 10.998352,14.8108289 10.9686882,15.0260695 C10.9686882,15.0260695 12.6150297,16.6544118 13.4901121,17.7118984 L13.4901121,19.5414439 C12.555702,18.3669786 10.6127225,16.1677808 10.6127225,16.1677808 C9.44100197,18.9846257 7.80454843,20 7.80454846,20 L6,20 C6,20 9.56460119,16.3034759 9.83651943,14.0481284 L6.10876731,14.0481284 L7.25576797,12.9719251 L7.25576797,12.9719251 Z M14.7953197,7.89973261 L21,7.89973261 L21,18.5167112 L18.4736322,18.5260695 L16.5949242,19.9859626 L15.8335531,18.5167112 L14.7953197,18.5167112 L14.7953197,7.89973261 Z M19.8529993,8.91978608 L15.9472643,8.91978608 L15.9472643,17.2673797 L16.1697429,17.2673797 L16.8371786,18.5775401 L18.5576796,17.2673797 L19.8529993,17.2673797 L19.8529993,8.91978608 Z" id="形状" fill="#FFFFFF"></path>
                            </g>
                        </g>
                    </g>
                </g>
            </g>
        </g>
    </g>
</svg>