<?xml version="1.0" encoding="UTF-8"?>
<svg width="42px" height="42px" viewBox="0 0 42 42" version="1.1" xmlns="http://www.w3.org/2000/svg" xmlns:xlink="http://www.w3.org/1999/xlink">
    <!-- Generator: Sketch 55.2 (78181) - https://sketchapp.com -->
    <title>智能业务系统</title>
    <desc>Created with Sketch.</desc>
    <g id="Page-1" stroke="none" stroke-width="1" fill="none" fill-rule="evenodd">
        <g id="首页" transform="translate(-380.000000, -1202.000000)" fill="#FE9B01" fill-rule="nonzero">
            <g id="4" transform="translate(380.000000, 1200.000000)">
                <g id="智能业务系统" transform="translate(0.000000, 2.000000)">
                    <path d="M41.1794908,34.7210638 C41.63255,34.7210638 42,35.1077468 42,35.5846901 C42,38.7279131 39.5711019,41.2851064 36.5857345,41.2851064 L5.41414458,41.2851064 C2.42885922,41.2851064 -1.0658141e-14,38.7279991 -1.0658141e-14,35.5846901 C-1.0658141e-14,35.1076608 0.367411059,34.7209778 0.820470278,34.7209778 L4.3169751,34.7209778 L0.0337074736,19.4296417 C-0.0944255157,18.9721335 0.153965452,18.4918221 0.588485583,18.3569115 C1.02284165,18.2217395 1.47918212,18.4834445 1.60731511,18.9409527 L6.02749309,34.7210638 L17.2265789,34.7210638 C17.6796381,34.7210638 18.0468925,35.1077468 18.0468925,35.5847761 C18.0468925,36.0618054 17.6796381,36.4484883 17.2265789,36.4484883 L5.41660553,36.4484883 C5.41570318,36.4484883 5.4147188,36.4486604 5.41381646,36.4486604 C5.41217583,36.4486604 5.4105352,36.4484883 5.40889458,36.4484883 L1.73052622,36.4484883 C2.1060658,38.2253178 3.61511476,39.5578539 5.41414458,39.5578539 L36.5858165,39.5578539 C38.3847643,39.5578539 39.8938133,38.2253178 40.2694349,36.4484883 L36.5910665,36.4484883 C36.5894259,36.4484883 36.5877853,36.4486604 36.5861446,36.4486604 C36.5852423,36.4486604 36.5842579,36.4484883 36.5833556,36.4484883 L24.6503352,36.4484883 C24.197276,36.4484883 23.8300216,36.0618054 23.8300216,35.5847761 C23.8300216,35.1077468 24.197276,34.7210638 24.6503352,34.7210638 L35.972386,34.7210638 L40.392646,18.9302426 C40.520779,18.4727344 40.9769554,18.2113734 41.4113935,18.3459399 C41.8459136,18.4807679 42.0943866,18.9610759 41.9663356,19.4185841 L37.6827399,34.7210638 L41.1794908,34.7210638 Z M21.4978699,34.9740438 C21.6504482,35.1346959 21.7382218,35.3575341 21.7382218,35.5846901 C21.7382218,35.8118461 21.6504482,36.0346843 21.4978699,36.1953328 C21.3452916,36.3559848 21.1336506,36.4484023 20.9179082,36.4484023 C20.7021657,36.4484023 20.4905248,36.3559848 20.3379464,36.1953328 C20.1853681,36.0346843 20.0975945,35.8118461 20.0975945,35.5846901 C20.0975945,35.3575341 20.1853681,35.1346959 20.3379464,34.9740438 C20.4905248,34.8133953 20.7021657,34.7210638 20.9179082,34.7209778 C21.1336506,34.7209778 21.3452916,34.8133953 21.4978699,34.9740438 Z M39.5389456,11.0157013 C40.8959084,11.0157013 41.9998865,12.1780003 41.9998865,13.6067521 C41.9998865,15.0355039 40.8959084,16.1978889 39.5389456,16.1978889 C39.4296798,16.1978889 39.3223828,16.1895974 39.2168904,16.1749996 L33.2832338,28.4382474 C33.7026602,28.9031835 33.9608949,29.5308428 33.9608949,30.2211217 C33.9608949,31.649877 32.8569168,32.8122585 31.499954,32.8122585 C30.4336283,32.8122585 29.5238185,32.0943424 29.1828961,31.093559 L12.8443814,31.093559 C12.5034591,32.0943424 11.5936492,32.8122585 10.5273235,32.8122585 C9.1703607,32.8122585 8.06638262,31.649877 8.06638262,30.2211217 C8.06638262,29.50977 8.34012128,28.8645747 8.78243439,28.3958404 L2.72810963,15.1522798 C2.64033607,15.1622984 2.55125001,15.1678238 2.46101551,15.1678238 C1.1040527,15.1678238 7.46148173e-05,14.0055283 7.46148173e-05,12.576773 C7.46148173e-05,11.1480212 1.1040527,9.98563621 2.46101551,9.98563621 C3.01899284,9.98563621 3.53390371,10.1824784 3.94717772,10.513192 L14.4851727,3.21223167 C14.4384969,3.01314635 14.4132312,2.80525002 14.4132312,2.5911368 C14.4132312,1.16238498 15.5172093,0 16.8741721,0 C18.2311349,0 19.335113,1.16238498 19.335113,2.5911368 C19.335113,2.67189458 19.3310935,2.75161334 19.3242028,2.83055801 L24.9860075,5.58234681 C25.3973948,5.78229569 25.5768794,6.29551168 25.3870589,6.72857885 C25.2485079,7.04452264 24.9518004,7.23056865 24.6417219,7.23056865 C24.5266319,7.23056865 24.4097372,7.20491662 24.2984206,7.15084644 L18.6353035,4.39836954 C18.3745257,4.68011178 18.0536191,4.89958179 17.6944857,5.03371478 L17.6944857,16.0196183 C18.5221822,16.2576565 19.2139527,16.8459328 19.6153321,17.623878 L37.0281296,13.3379632 L30.2624289,10.049639 C29.8510416,9.8496901 29.671557,9.33647066 29.8613775,8.90340693 C30.0512801,8.47025375 30.5385464,8.28127304 30.9500158,8.4811359 L37.7778142,11.7996054 C38.2250492,11.3165312 38.8491438,11.0157013 39.5389456,11.0157013 Z M2.46109754,13.4403132 C2.91341848,13.4403132 3.28132914,13.0528527 3.28141117,12.576601 C3.28141117,12.1003492 2.91341848,11.7128887 2.46109754,11.7128887 C2.0087766,11.7128887 1.64078391,12.1003492 1.64078391,12.576601 C1.64078391,13.0528527 2.0087766,13.4403132 2.46109754,13.4403132 Z M18.3509007,19.1853832 C18.3509007,18.3280633 17.6884975,17.6307005 16.8743362,17.6307005 C16.0601749,17.6307005 15.3977716,18.3281493 15.3977716,19.1853832 C15.3977716,20.0426171 16.0601749,20.740066 16.8743362,20.740066 C17.6884975,20.740066 18.3509007,20.0426171 18.3509007,19.1853832 Z M16.8743362,1.72759655 C16.4219332,1.72759655 16.0540225,2.11506051 16.0540225,2.59130882 C16.0540225,3.06756057 16.4220152,3.45502109 16.8743362,3.45502109 C17.3266571,3.45502109 17.6946498,3.06756057 17.6946498,2.59130882 C17.6946498,2.11506051 17.3266571,1.72759655 16.8743362,1.72759655 Z M15.3880919,4.65471779 L4.8500149,11.9555061 C4.89669075,12.1546774 4.92195641,12.3625738 4.92195641,12.576687 C4.92195641,12.6383571 4.91916734,12.6993357 4.9151478,12.7598809 L14.446536,17.1300077 C14.8527553,16.5990837 15.4123732,16.2039338 16.0540225,16.0193603 L16.0540225,5.03371478 C15.8126042,4.94362993 15.5884125,4.81502231 15.3880919,4.65471779 Z M10.5274055,31.084748 C10.9797265,31.084748 11.3477192,30.6972875 11.3477192,30.2210357 C11.3477192,29.744784 10.9797265,29.3573235 10.5274055,29.3573235 C10.0750846,29.3573235 9.70709191,29.744784 9.70709191,30.2210357 C9.70709191,30.6972875 10.0750846,31.084748 10.5274055,31.084748 Z M11.0276328,27.6839691 L14.6161768,21.4443373 C14.0844495,20.8554588 13.7571444,20.0601497 13.7571444,19.1853832 C13.7571444,19.0249927 13.7686288,18.8674508 13.7898749,18.7131912 L4.25914299,14.3431538 C4.24158828,14.362933 4.22403357,14.3827121 4.20590464,14.4018858 L10.2603114,27.6455324 C10.348085,27.6355137 10.437089,27.6299849 10.5274055,27.6299849 C10.6987691,27.6299849 10.866031,27.6486425 11.0276328,27.6839691 Z M12.8499595,29.3661345 L28.9584583,29.3661345 L18.8393975,21.7307448 C18.3027483,22.1909296 17.6186888,22.4674905 16.8743362,22.4674905 C16.5775467,22.4674905 16.290683,22.4226648 16.018585,22.340696 L12.430205,28.5799838 C12.6109201,28.8119771 12.7538188,29.0775664 12.8499595,29.3661345 Z M31.499872,31.084748 C31.9522749,31.084748 32.3201856,30.6972875 32.3201856,30.2210357 C32.3201856,29.744784 31.9521929,29.3573235 31.499872,29.3573235 C31.047551,29.3573235 30.6795583,29.744784 30.6795583,30.2210357 C30.6795583,30.6972875 31.047551,31.084748 31.499872,31.084748 Z M31.8219271,27.6528743 L37.7555837,15.3896264 C37.6485328,15.2709514 37.552146,15.1417417 37.4677357,15.003549 L19.9885748,19.3057854 C19.9761881,19.6638816 19.9095786,20.007552 19.7963754,20.3276415 L30.0930341,28.0969956 C30.4921167,27.8030742 30.9770041,27.6299849 31.499872,27.6299849 C31.6091378,27.6299849 31.7164348,27.6382764 31.8219271,27.6528743 Z M39.5388635,14.4704644 C39.9911845,14.4704644 40.3591772,14.0830039 40.3591772,13.6067521 C40.3591772,13.1305003 39.9911845,12.7430398 39.5388635,12.7430398 C39.0865426,12.7430398 38.7185499,13.1305003 38.7185499,13.6067521 C38.7185499,14.0830039 39.0865426,14.4704644 39.5388635,14.4704644 Z M28.3228793,7.26295708 C28.4754577,7.42360909 28.5632312,7.64644387 28.5632312,7.8736033 C28.5632312,8.10075929 28.4754577,8.32359751 28.3228793,8.48424607 C28.170301,8.64489808 27.9586601,8.73731556 27.7429176,8.73731556 C27.5271751,8.73731556 27.3155342,8.64489808 27.1629558,8.48424607 C27.0103775,8.32359751 26.9226039,8.10075929 26.9226039,7.8736033 C26.9226039,7.64644387 27.0103775,7.42360909 27.1629558,7.26295708 C27.3155342,7.10230507 27.5263548,7.00989103 27.7429176,7.00989103 C27.9586601,7.00989103 28.170301,7.10230507 28.3228793,7.26295708 Z" id="hologram"></path>
                </g>
            </g>
        </g>
    </g>
</svg>