<?xml version="1.0" encoding="UTF-8"?>
<svg width="42px" height="42px" viewBox="0 0 42 42" version="1.1" xmlns="http://www.w3.org/2000/svg" xmlns:xlink="http://www.w3.org/1999/xlink">
    <!-- Generator: Sketch 55.2 (78181) - https://sketchapp.com -->
    <title>智能同行业</title>
    <desc>Created with Sketch.</desc>
    <g id="Page-1" stroke="none" stroke-width="1" fill="none" fill-rule="evenodd">
        <g id="首页" transform="translate(-1350.000000, -812.000000)" fill="#FE9B01" fill-rule="nonzero">
            <g id="5" transform="translate(1350.000000, 798.000000)">
                <g id="智能同行业" transform="translate(0.000000, 14.000000)">
                    <path d="M37.4214418,1.78959568 C36.1689875,1.78959568 35.1067638,2.61960306 34.7556697,3.75838173 L31.2622014,3.75838173 C30.8091421,3.75838173 30.4418881,4.12564236 30.4418881,4.57870925 C30.4418881,5.03177614 30.8091421,5.39903677 31.2622014,5.39903677 L34.7556697,5.39903677 C35.1068458,6.53781544 36.1689875,7.36782283 37.4214418,7.36782283 C38.9593649,7.36782283 40.210507,6.11665929 40.210507,4.57870925 C40.210507,3.04075921 38.9593649,1.78959568 37.4214418,1.78959568 Z M37.4214415,5.72716778 C36.8314722,5.72716778 36.3444522,5.27984319 36.2805498,4.70651628 C36.2871123,4.66476161 36.2914602,4.62226864 36.2914602,4.57870925 C36.2914602,4.53514986 36.2870302,4.49265689 36.2805498,4.45090222 C36.3444522,3.87765735 36.8314722,3.43025072 37.4214415,3.43025072 C38.0547237,3.43025072 38.5698801,3.9454164 38.5698801,4.57870925 C38.5698801,5.2120021 38.0547234,5.72716778 37.4214415,5.72716778 Z M28.7322728,3.99890176 C28.8848515,4.15148268 28.9718047,4.36312718 28.9718047,4.57887332 C28.9718047,4.79461946 28.8848515,5.00626396 28.7322728,5.15884488 C28.5788746,5.31142579 28.3680541,5.39920084 28.1523117,5.39920084 C27.935749,5.39920084 27.7249281,5.31142579 27.5715299,5.15884488 C27.4189513,5.00626396 27.3319984,4.79461946 27.3319984,4.57887332 C27.3319984,4.36312718 27.4189513,4.15148268 27.5715299,3.99890176 C27.7249281,3.84632084 27.935749,3.7585458 28.1523117,3.7585458 C28.3680541,3.7585458 28.5788746,3.84632084 28.7322728,3.99890176 Z M41.7597507,28.6304661 C42.0800831,28.950804 42.0800831,29.4702354 41.7597507,29.7906553 L30.0380479,41.5125614 C29.7194382,41.8311766 29.2964026,42 28.8649175,42 C28.65057,42 28.4341713,41.9583274 28.22737,41.8726852 C27.6043424,41.6146101 27.2017326,41.0120796 27.2017326,40.3376883 L27.2017326,38.2415874 L13.7812426,38.2415874 C13.3281839,38.2415874 12.9609293,37.8743268 12.9609293,37.4212599 C12.9609293,36.968193 13.3281839,36.6009324 13.7812426,36.6009324 L28.0219639,36.6009324 C28.4750229,36.6009324 28.8422772,36.968193 28.8422772,37.4212599 L28.8422772,40.3376883 C28.8422772,40.3471221 28.8435077,40.3509776 28.8435077,40.3509776 C28.8467889,40.354505 28.8612264,40.36197 28.8694296,40.3602473 C28.8695936,40.3598372 28.8728749,40.3575402 28.8779608,40.3524542 L40.0196201,29.2106017 L28.8779608,18.0687493 C28.8630308,18.0538193 28.8676245,18.0602179 28.8675428,18.0602179 C28.862621,18.0602179 28.8479374,18.0662883 28.8428514,18.0719485 C28.8430155,18.0723587 28.8423592,18.0762963 28.8423592,18.0835152 L28.8408827,25.7776951 C29.9796416,26.1287953 30.8096346,27.1910374 30.8096346,28.4435135 C30.8096346,29.9814635 29.5584927,31.232627 28.0205694,31.232627 C26.482646,31.232627 25.2315041,29.9814635 25.2315041,28.4435135 C25.2315041,27.1910374 26.0614971,26.1288773 27.2002561,25.7776951 L27.2002561,21.820189 L14.7983494,21.820189 L14.7983494,23.9166181 C14.7983494,24.5910093 14.3957396,25.1935399 13.7727117,25.4516149 C13.1496837,25.70969 12.4388823,25.5683475 11.9620341,25.0914911 L0.240249258,13.369503 C-0.080083086,13.0491651 -0.080083086,12.5297338 0.240249258,12.2093959 L11.9619521,0.4874898 C12.4388819,0.0106334114 13.1495193,-0.130791053 13.7726293,0.127283985 C14.3956573,0.385441056 14.7982674,0.987971621 14.7982674,1.66236288 L14.7982674,3.75838173 L24.7817263,3.75838173 C25.2347854,3.75838173 25.6020397,4.12564236 25.6020397,4.57870925 C25.6020397,5.03177614 25.2347854,5.39903677 24.7817263,5.39903677 L13.9779541,5.39903677 C13.5248947,5.39903677 13.1576408,5.03177614 13.1576408,4.57870925 L13.1576408,1.66244491 C13.1576408,1.65301114 13.15641,1.6491556 13.15641,1.6491556 C13.1531291,1.6456282 13.1381173,1.640132 13.1305704,1.63980387 C13.130406,1.64021403 13.1272068,1.64251095 13.1220392,1.64759698 L1.98037986,12.7894495 L13.1220392,23.931384 C13.1368045,23.9462319 13.1322111,23.9399154 13.1323751,23.9399154 C13.137379,23.9399154 13.1520626,23.9338449 13.1571486,23.9281847 C13.1569845,23.9276925 13.1576408,23.9238369 13.1576408,23.9166181 L13.1576408,17.3159347 C12.0188819,16.9648345 11.1888889,15.9025924 11.1888889,14.6501163 C11.1888889,13.1121663 12.4400307,11.8610028 13.9779541,11.8610028 C15.5158775,11.8610028 16.7670193,13.1121663 16.7670193,14.6501163 C16.7670193,15.9025924 15.9370263,16.9647525 14.7982674,17.3159347 L14.7982674,20.179534 L27.2017326,20.179534 L27.2017326,18.0835152 C27.2017326,17.4091239 27.60426,16.8065113 28.22737,16.5484363 C28.8503983,16.2901972 29.5611998,16.4317857 30.0380479,16.9086421 L41.7597507,28.6304661 Z M13.9779541,15.7985749 C14.6112359,15.7985749 15.1263927,15.2834092 15.1263927,14.6501163 C15.1263927,14.0168235 14.6112359,13.5016578 13.9779541,13.5016578 C13.3447542,13.5016578 12.8295155,14.0168235 12.8295155,14.6501163 C12.8295155,15.2834092 13.3446722,15.7985749 13.9779541,15.7985749 Z M29.1689259,28.4434314 C29.1689259,27.8101386 28.6537692,27.2949729 28.0204873,27.2949729 C27.3872055,27.2949729 26.8720487,27.8101386 26.8720487,28.4434314 C26.8720487,29.0767243 27.3872055,29.59189 28.0204873,29.59189 C28.6537692,29.59189 29.1689259,29.0767243 29.1689259,28.4434314 Z M10.6148336,36.8415344 C10.7682319,36.9941154 10.8551851,37.2057599 10.8551851,37.421506 C10.8551851,37.6372521 10.7682319,37.8488966 10.6148336,38.0014776 C10.462255,38.1540585 10.2514345,38.2418335 10.0348718,38.2418335 C9.81912938,38.2418335 9.60748855,38.1540585 9.45491027,38.0014776 C9.302332,37.8488966 9.21455848,37.6372521 9.21455848,37.421506 C9.21455848,37.2057599 9.30233233,36.9941154 9.45491027,36.8415344 C9.60748855,36.6881332 9.81912938,36.6011785 10.0348718,36.6011785 C10.2514345,36.6011785 10.462255,36.6881332 10.6148336,36.8415344 Z M4.57880428,34.6351815 C6.11672765,34.6351815 7.3678695,35.8863451 7.3678695,37.4242951 C7.3678695,38.9622452 6.11672765,40.2134087 4.57880428,40.2134087 C3.0408809,40.2134087 1.78973905,38.9622452 1.78973905,37.4242951 C1.78973905,35.8863451 3.0408809,34.6351815 4.57880428,34.6351815 Z M4.57880428,38.5727536 C5.21208614,38.5727536 5.7272429,38.057588 5.7272429,37.4242951 C5.7272429,36.7910023 5.21208614,36.2758366 4.57880428,36.2758366 C3.94552241,36.2758366 3.43036565,36.7910023 3.43036565,37.4242951 C3.43036565,38.057588 3.94552241,38.5727536 4.57880428,38.5727536 Z M29.8046688,7.05462178 C30.2577275,7.05462178 30.6249821,7.42188241 30.6249821,7.8749493 C30.6249821,8.32801619 30.2577278,8.69527682 29.8046688,8.69527682 L20.5558,8.69527682 C20.1027413,8.69527682 19.7354867,8.32801619 19.7354867,7.8749493 C19.7354867,7.42188241 20.1027413,7.05462178 20.5558,7.05462178 L29.8046688,7.05462178 Z M25.742477,33.3051025 C26.195536,33.3051025 26.5627903,33.6723631 26.5627903,34.12543 C26.5627903,34.5784969 26.195536,34.9457575 25.742477,34.9457575 L16.4936906,34.9457575 C16.0406315,34.9457575 15.6733773,34.5784969 15.6733773,34.12543 C15.6733773,33.6723631 16.0406315,33.3051025 16.4936906,33.3051025 L25.742477,33.3051025 Z" id="transfer"></path>
                </g>
            </g>
        </g>
    </g>
</svg>