<?xml version="1.0" encoding="UTF-8"?>
<svg width="42px" height="42px" viewBox="0 0 42 42" version="1.1" xmlns="http://www.w3.org/2000/svg" xmlns:xlink="http://www.w3.org/1999/xlink">
    <!-- Generator: Sketch 55.2 (78181) - https://sketchapp.com -->
    <title>智能客服</title>
    <desc>Created with Sketch.</desc>
    <g id="Page-1" stroke="none" stroke-width="1" fill="none" fill-rule="evenodd">
        <g id="首页" transform="translate(-1350.000000, -1072.000000)" fill="#FE9B01" fill-rule="nonzero">
            <g id="6" transform="translate(1350.000000, 1070.000000)">
                <g id="智能客服" transform="translate(0.000000, 2.000000)">
                    <path d="M8.08567939,3.57943359 C8.37930738,3.92371875 8.33764228,4.44059766 7.99265199,4.73361328 L7.96364257,4.75846875 C7.80865169,4.89226172 7.61766612,4.95780469 7.4276667,4.95780469 C7.1975636,4.95780469 6.96885756,4.86174609 6.80663487,4.67438672 C6.51029495,4.33223437 6.54801542,3.81510937 6.89078686,3.51946875 L6.92932913,3.48657422 C7.2744016,3.19347656 7.79221576,3.23506641 8.08567939,3.57943359 Z M14.4373467,35.8644727 C14.8903211,35.8644727 15.2576643,36.2311523 15.2575003,36.6833086 L15.2575003,41.104957 C15.2575003,41.5571133 14.8901568,41.923793 14.4371824,41.923793 C13.984208,41.923793 13.6168648,41.5571133 13.6168648,41.104957 L13.6168648,37.4978789 C11.2140954,37.4269219 8.96048207,36.4651875 7.24350204,34.7716523 L7.20356272,34.7319492 C6.94823046,34.4769961 6.70481425,34.2046523 6.48029937,33.9225469 C6.37510938,33.7901484 6.27263132,33.6541406 6.17574148,33.5179687 C5.03270433,31.9126172 4.42843716,30.0197461 4.42843716,28.0441055 L4.42843716,27.6761953 L0.820338374,27.6761953 C0.574045877,27.6761953 0.34081995,27.5657812 0.185007279,27.3753867 C0.0292767886,27.1849922 -0.0326866889,26.9347969 0.0165389385,26.6939531 L1.80468656,17.9315391 L1.80468656,14.5749844 C1.80468656,11.5046367 2.75008158,8.56758984 4.53872229,6.08163281 C4.80292995,5.71437891 5.31548461,5.63046094 5.68348521,5.89419141 C6.05148581,6.15800391 6.13555562,6.66963281 5.87126577,7.03696875 C4.28421182,9.24278906 3.44532166,11.8494141 3.44532166,14.5749844 L3.44532166,18.0140625 C3.44532166,18.0688594 3.43981563,18.1236563 3.42880355,18.1774688 L1.82457404,26.0385234 L5.24883689,26.0385234 C5.70181128,26.0385234 6.06915444,26.4052031 6.06915444,26.8573594 L6.06915444,28.0440234 C6.06915444,29.6777578 6.56847816,31.2425859 7.51321575,32.5692773 C7.59334093,32.6819883 7.67806818,32.7945352 7.76517864,32.9041289 C7.95090472,33.1374258 8.15240929,33.3629297 8.3638576,33.5739141 L8.39845524,33.6082852 C9.87275868,35.0626992 11.8283885,35.8644727 13.9035897,35.8644727 L14.4373467,35.8644727 Z M25.1654107,15.4970156 C25.317854,15.6493477 25.4048823,15.8597578 25.4049644,16.0759102 C25.4049644,16.2912422 25.3179362,16.5024727 25.1654107,16.6548047 C25.0120634,16.8071367 24.8011903,16.8947461 24.5854687,16.8947461 C24.3689252,16.8947461 24.1581344,16.8071367 24.0055267,16.6548047 C23.8520972,16.5025547 23.7651511,16.2912422 23.7651511,16.0759102 C23.7651511,15.8597578 23.8520972,15.6485273 24.0055267,15.4970156 C24.1580522,15.3438633 24.3688431,15.2570742 24.5854687,15.2570742 C24.8011903,15.2570742 25.0119812,15.3438633 25.1654107,15.4970156 Z M29.3472058,32.6653359 C29.4998956,32.817668 29.5875814,33.0288984 29.5875814,33.2442305 C29.5875814,33.4595625 29.4998135,33.670793 29.3472058,33.823043 C29.1946803,33.975457 28.9829855,34.0630664 28.7672638,34.0630664 C28.5515422,34.0630664 28.3399295,33.975375 28.187404,33.823043 C28.0347963,33.670875 27.9469463,33.4595625 27.9469463,33.2442305 C27.9469463,33.0288984 28.0347963,32.817668 28.187404,32.6653359 C28.3398473,32.5129219 28.5515422,32.4253945 28.7672638,32.4253945 C28.9829855,32.4253945 29.194516,32.5130039 29.3472058,32.6653359 Z M28.7674282,17.0314922 C29.2204026,17.0314922 29.5877457,17.3980898 29.5877457,17.8503281 L29.5877457,30.3783047 C29.5877457,30.8304609 29.2204026,31.1971406 28.7674282,31.1971406 C28.3144538,31.1971406 27.9471106,30.8304609 27.9471106,30.3783047 L27.9471106,17.8503281 C27.9471106,17.3980898 28.3144538,17.0314922 28.7674282,17.0314922 Z M28.7674282,35.7769453 C30.4862983,35.7769453 31.8845856,37.1727891 31.8845856,38.8884727 C31.8845856,40.6041562 30.4862161,42 28.7674282,42 C27.0486402,42 25.6502708,40.6041562 25.6502708,38.8884727 C25.6502708,37.1727891 27.0486402,35.7769453 28.7674282,35.7769453 Z M28.7674282,40.3623281 C29.5815822,40.3623281 30.2439505,39.7011563 30.2439505,38.8884727 C30.2439505,38.0757891 29.5815822,37.4146172 28.7674282,37.4146172 C27.9532741,37.4146172 27.2909059,38.0757891 27.2909059,38.8884727 C27.2909059,39.7011563 27.9532741,40.3623281 28.7674282,40.3623281 Z M37.3234832,30.9388242 C38.3914903,29.8729102 40.1294262,29.8727461 41.1974333,30.9386602 C42.2655225,32.0048203 42.2655225,33.7395352 41.1974333,34.8056953 C40.6635119,35.3387344 39.961944,35.605582 39.2605404,35.605582 C38.5591369,35.605582 37.8575689,35.3387344 37.3235654,34.8056953 C36.7454314,34.2285234 36.480895,33.4554609 36.5287235,32.6985586 L32.3350946,30.5826445 C32.0588887,30.4432734 31.8848321,30.1606758 31.8848321,29.8518281 L31.8848321,19.4060508 C31.8848321,18.9538125 32.2521753,18.5872148 32.7051496,18.5872148 C33.158124,18.5872148 33.5254672,18.9538125 33.5254672,19.4060508 L33.5254672,19.7064492 L37.2510829,19.7064492 C38.9651867,19.7064492 40.3596114,18.3144609 40.3596114,16.6035352 C40.3596114,14.8926094 38.9651867,13.5006211 37.2510829,13.5006211 C36.8564561,13.5006211 36.4706225,13.5742852 36.1041833,13.7196445 C36.0934178,13.7239102 36.0822414,13.7266172 36.0713115,13.7303906 C36.0647371,13.7333438 36.0586558,13.7368711 36.0519171,13.7396602 C35.6784104,13.8952734 35.3422955,14.1206133 35.0530231,14.4094453 C34.7197845,14.7418359 34.4726702,15.1332891 34.3180902,15.5728125 C34.1995871,15.9097969 33.8826201,16.1206992 33.5440398,16.1206992 C33.4538887,16.1206992 33.3622584,16.1056875 33.2723538,16.0742695 C32.8448551,15.9243984 32.6199293,15.4571484 32.7699894,15.0304219 C33.0065847,14.3573555 33.3843647,13.7586914 33.8928104,13.2512461 C34.2138864,12.930668 34.5738334,12.6617695 34.9662413,12.4469297 C34.740165,8.8869375 31.7683013,6.05923828 28.1457389,6.05923828 C24.6554858,6.05923828 21.8077956,8.60573437 21.3692848,11.9782031 C22.0388848,12.1280742 22.6678881,12.4210898 23.2165196,12.8420742 C23.5756448,13.1176992 23.64295,13.6318711 23.3668262,13.9903477 C23.2051788,14.2000195 22.961927,14.3101055 22.715881,14.3101055 C22.5413314,14.3101055 22.3654669,14.2547344 22.2163929,14.1403828 C21.7392577,13.7741953 21.1684377,13.5561562 20.5654854,13.5098086 C20.5488029,13.5084961 20.5326957,13.505707 20.5163419,13.5034922 C20.4970297,13.5040664 20.4777175,13.5048867 20.4582409,13.5040664 C20.413946,13.5022617 20.3697334,13.5005391 20.3250276,13.5005391 C18.6109239,13.5005391 17.2164991,14.8924453 17.2164991,16.6034531 C17.2164991,18.3143789 18.6109239,19.7063672 20.3250276,19.7063672 L24.8311859,19.7063672 C25.2841603,19.7063672 25.6515035,20.0729648 25.6515035,20.5252031 L25.6515035,29.8520742 C25.6515035,30.1610039 25.4774469,30.4435195 25.201241,30.5828906 L21.007612,32.6988047 C21.0554406,33.4557891 20.7909864,34.2288516 20.2127702,34.8060234 C19.6787666,35.3390625 18.9772809,35.605582 18.2757952,35.605582 C17.5743916,35.605582 16.8729059,35.3390625 16.3388201,34.8060234 C15.2707309,33.7398633 15.2707309,32.0051484 16.3388201,30.9389883 C17.4069916,29.8729102 19.1447631,29.8729102 20.2128524,30.9389883 C20.2848418,31.0108477 20.3514895,31.0859883 20.4138639,31.1635078 L24.0110327,29.3484844 L24.0110327,21.3441211 L20.325192,21.3441211 C17.7065365,21.3441211 15.5760284,19.2174609 15.5760284,16.6035352 C15.5760284,14.1921445 17.3889942,12.1955039 19.7256912,11.9005195 C19.9477407,9.97680469 20.8190097,8.19828516 22.2242,6.82869141 C23.0612,6.01272656 24.0394669,5.38986328 25.1024611,4.98216797 C22.7166206,2.81941406 19.662002,1.63767187 16.4061253,1.63767187 C14.3676584,1.63767187 12.4171237,2.09630859 10.6085955,3.00078516 C10.2036141,3.20323828 9.71061817,3.03983203 9.50771654,2.6355 C9.30481492,2.23116797 9.46859902,1.73922656 9.87366265,1.53660937 C11.9123761,0.516960938 14.1101894,0 16.4060431,0 C20.4133708,0 24.150656,1.58796094 26.9295618,4.47119531 C26.9397521,4.48169531 26.9487097,4.49309766 26.9582426,4.50408984 C27.348596,4.44970313 27.745113,4.42156641 28.1456567,4.42156641 C32.4907429,4.42156641 36.0827344,7.70199609 36.5667727,11.9119219 C36.7921916,11.8792734 37.0205689,11.8627852 37.2508364,11.8627852 C39.8694918,11.8627852 42,13.9894453 42,16.6033711 C42,19.2172969 39.8694918,21.343957 37.2508364,21.343957 L33.5252207,21.343957 L33.5252207,29.3483203 L37.1223895,31.1633437 C37.1847639,31.0858242 37.2514938,31.0106836 37.3234832,30.9388242 Z M19.0525575,33.6478242 C19.480878,33.2202773 19.480878,32.5244062 19.0526397,32.0968594 C18.8383151,31.8830859 18.5570962,31.7761172 18.275713,31.7761172 C17.9943298,31.7761172 17.7129465,31.8830859 17.4987863,32.0968594 C17.0703015,32.5244062 17.0703015,33.2201953 17.4987863,33.6478242 C17.927189,34.0755352 18.6240726,34.0755352 19.0525575,33.6478242 Z M40.0373027,33.6478242 C40.4657054,33.2202773 40.4657054,32.5244062 40.0373849,32.0968594 C39.8232247,31.8830859 39.5419236,31.7761172 39.2605404,31.7761172 C38.979075,31.7761172 38.6976918,31.8830859 38.4836137,32.0968594 C38.0551289,32.5244062 38.0551289,33.2201953 38.4836137,33.6478242 C38.9117699,34.0755352 39.6089001,34.0756992 40.0373027,33.6478242 Z" id="cloud-computing-3"></path>
                </g>
            </g>
        </g>
    </g>
</svg>